<?xml version="1.0" encoding="iso-8859-1"?>
<!-- Generator: Adobe Illustrator 16.0.0, SVG Export Plug-In . SVG Version: 6.00 Build 0)  -->
<!DOCTYPE svg PUBLIC "-//W3C//DTD SVG 1.1//EN" "http://www.w3.org/Graphics/SVG/1.1/DTD/svg11.dtd">
<svg version="1.1" id="Layer_1" xmlns="http://www.w3.org/2000/svg" xmlns:xlink="http://www.w3.org/1999/xlink" x="0px" y="0px"
	 width="100px" height="100px" viewBox="0 0 100 100" style="enable-background:new 0 0 100 100;" xml:space="preserve">
<g>
	<path style="fill-rule:evenodd;clip-rule:evenodd;fill:#E45125;" d="M-141.421-28.182c13.421,0,26.844,0,40.264-0.001
		c2.938,0,2.409,0.012,2.206,2.421c-0.731,8.659-1.554,17.31-2.319,25.965c-1.149,12.985-2.269,25.972-3.428,38.957
		c-0.56,6.279-1.198,12.555-1.743,18.836c-0.079,0.914-0.439,1.273-1.271,1.502c-9.092,2.486-18.172,5.008-27.257,7.518
		c-0.866,0.238-1.78,0.357-2.596,0.713c-2.725,1.188-5.33,0.854-8.132,0.033c-9.803-2.865-19.667-5.529-29.521-8.217
		c-1.064-0.291-1.355-0.764-1.448-1.838c-0.971-11.189-2.035-22.373-3.034-33.563c-0.735-8.231-1.388-16.47-2.122-24.702
		c-0.762-8.549-1.591-17.091-2.363-25.638c-0.179-1.984-0.125-1.985,1.862-1.985C-168.688-28.18-155.054-28.181-141.421-28.182z"/>
	<path style="fill-rule:evenodd;clip-rule:evenodd;fill:#F06726;" d="M-168.306-10.302c0.499-0.608,1.188-0.333,1.786-0.334
		c7.741-0.02,15.482-0.052,23.222,0.022c1.448,0.013,1.808-0.439,1.747-1.807c-0.105-2.381,0.01-4.772-0.047-7.156
		c-0.027-1.161,0.389-1.596,1.568-1.593c10.55,0.028,21.101,0.01,31.651,0.023c1.585,0.002,1.769,0.466,1.635,2.078
		c-0.191,2.311-0.623,4.616-0.7,6.904c-0.204,6.014-0.956,11.979-1.455,17.959c-0.402,4.812-0.775,9.644-1.4,14.449
		c-0.391,3.013-0.352,6.099-0.726,9.134c-0.783,6.371-0.993,12.801-1.87,19.166c-0.144,1.041-0.003,2.117-0.043,3.178
		c-0.046,1.227-0.531,1.982-1.879,2.342c-5.073,1.352-10.104,2.855-15.163,4.27c-3.191,0.889-6.396,1.74-9.603,2.572
		c-1.859,0.484-1.994,0.357-1.998-1.555c-0.003-2.439-0.037-4.879,0.018-7.314c0.021-0.869-0.165-1.521-0.957-1.934
		c0.578-0.512,1.374-0.297,2.012-0.613c6.343-1.713,12.667-3.496,19.019-5.178c1.179-0.313,1.66-0.967,1.718-2.125
		c0.358-7.189,1.208-14.338,1.873-21.504c0.107-1.16-0.045-2.336,0.208-3.488c0.248-1.087,0.315-2.201,0.451-3.3
		c0.229-1.851-0.064-2.121-1.95-2.124c-6.47-0.008-12.941,0.011-19.412-0.017c-1.035-0.004-2.131,0.279-3.092-0.397
		c-0.297-0.402-0.368-0.871-0.376-1.347c-0.047-2.733-0.047-5.467,0-8.201c0.009-0.475,0.079-0.945,0.374-1.346
		c0.685-0.563,1.51-0.408,2.288-0.41c6.992-0.014,13.984-0.004,20.975-0.013c0.68,0,1.388,0.137,1.997-0.305
		c0.25-0.219,0.43-0.5,0.427-0.825c-0.03-2.708,0.572-5.368,0.604-8.069c-0.428-1.014-1.339-0.702-2.073-0.706
		c-11.354-0.049-22.707,0.018-34.063,0.049c-4.775,0.013-9.551,0.01-14.326-0.005C-166.703-9.825-167.582-9.691-168.306-10.302z"/>
	<path style="fill-rule:evenodd;clip-rule:evenodd;fill:#EBEBEB;" d="M-141.565,11.21c7.566,0.025,15.134,0.053,22.7,0.073
		c2.234,0.006,2.289,0,2.083,2.252c-0.119,1.304-0.127,2.637-0.553,3.903c-0.816-0.842-0.501-1.885-0.477-2.86
		c0.054-2.199-0.122-2.433-2.237-2.437c-6.342-0.013-12.685-0.012-19.027,0c-1.871,0.004-1.982,0.122-2,1.969
		c-0.021,1.903,0.01,3.806-0.014,5.709c-0.008,0.732,0.064,1.493-0.459,2.121c-0.458,0.333-0.994,0.331-1.52,0.326
		c-7.013-0.06-14.027,0.163-21.04-0.12c-0.704-0.029-1.382-0.051-1.806-0.737c-0.26-0.617-0.196-1.217,0.106-1.803
		c-0.579-6.857-1.192-13.712-1.72-20.573c-0.239-3.113-0.823-6.198-0.778-9.334c17.39-0.025,34.778-0.044,52.169-0.092
		c1.01-0.002,1.555,0.207,1.249,1.331c-2.119-0.593-4.29-0.439-6.45-0.442c-5.879-0.004-11.759-0.01-17.637,0.004
		c-1.968,0.005-2.079,0.128-2.098,2.057c-0.016,1.642-0.015,3.284,0,4.925c0.018,2.026,0.152,2.179,2.164,2.184
		c6.46,0.016,12.923,0.004,19.385,0.006c0.688,0.001,1.378-0.017,2.064,0.015c0.58,0.026,1.177,0.014,1.63,0.481
		c-0.775,0.493-1.641,0.253-2.458,0.255c-7.184,0.024-14.367,0.009-21.551,0.012c-0.579,0-1.158,0.045-1.737,0.069
		c-0.671,0.569-1.487,0.479-2.272,0.482c-3.384,0.014-6.77-0.01-10.154,0.012c-1.906,0.013-2.204,0.291-1.976,2.115
		c0.25,1.996,0.341,4.002,0.521,6.001c0.119,1.316,0.696,1.718,1.907,1.712c3.278-0.016,6.558-0.014,9.838,0
		C-142.979,10.83-142.223,10.761-141.565,11.21z"/>
	<path style="fill-rule:evenodd;clip-rule:evenodd;fill:#EBEBEB;" d="M-140.598,49.872c-0.584,0.559-1.275,0.199-1.922,0.23
		c-6.466-1.791-12.922-3.621-19.407-5.344c-1.159-0.307-1.721-0.76-1.802-1.969c-0.176-2.641-0.278-5.291-0.746-7.904
		c-0.699-1.531-0.315-3.182-0.436-4.766c-0.063-0.83-0.719-1.656-0.171-2.525l-0.04,0.016c0.76-0.5,1.62-0.346,2.45-0.369
		c2.319-0.068,4.642,0.111,6.961-0.113c1.044-0.1,1.663,0.398,1.895,1.469c0.359,1.666,0.362,3.361,0.411,5.039
		c0.036,1.248,0.203,2.17,1.619,2.393c0.254,0.039,0.443,0.277,0.643,0.449l0.005,0.002c0.81,0.355,1.795,0.018,2.536,0.643h0.008
		c0.771,0.477,1.775,0.082,2.516,0.674l0.001-0.014c1.057,0.471,2.328,0.061,3.322,0.799c0.525,0.545,1.403-0.109,1.896,0.553
		c-0.467,2.969-0.174,5.959-0.241,8.939C-141.113,48.728-140.798,49.282-140.598,49.872z"/>
	<path style="fill-rule:evenodd;clip-rule:evenodd;fill:#F06726;" d="M-140.949,39.065c-0.645-0.105-1.359,0.182-1.93-0.35
		c0.206-0.203,0.427-0.195,0.654-0.039c0.45,0.008,0.723-0.234,0.721-0.66c-0.018-4.762-0.051-9.521-0.08-14.28
		c-0.639-0.949-1.579-1.102-2.64-1.097c-4.602,0.021-9.205-0.033-13.806,0.026c-2.485,0.033-4.942-0.189-7.4-0.476
		c-0.115-0.015-0.23-0.03-0.346-0.046c-0.279-0.341-0.287-0.67,0.044-0.983c0.242,0.522,0.598,0.776,1.227,0.773
		c7.638-0.044,15.276-0.06,22.914-0.083c0.457-0.444,1.037-0.496,1.627-0.499c3.018-0.016,6.039-0.056,9.057,0.012
		c2.407,0.055,2.995,0.756,2.814,3.143c-0.256,3.377-0.703,6.738-0.932,10.117c-0.069,1.021-0.544,1.736-1.502,2.018
		c-3.202,0.939-6.434,1.77-9.669,2.582C-140.457,39.29-140.719,39.226-140.949,39.065z"/>
	<path style="fill-rule:evenodd;clip-rule:evenodd;fill:#E54E27;" d="M-165.429,22.19c7.529-0.012,15.06,0.005,22.589-0.06
		c1.322-0.011,1.322,0.693,1.256,1.605c-5.5,0-11.001-0.05-16.5,0.025c-1.918,0.025-3.698-0.281-5.383-1.173
		C-164.083,22.263-164.861,22.742-165.429,22.19z"/>
	<path style="fill-rule:evenodd;clip-rule:evenodd;fill:#E54E27;" d="M-151.142,36.478c-2.422-0.25-2.398-0.254-2.577-2.604
		c-0.137-1.793-0.376-3.578-0.507-5.373c-0.053-0.721-0.288-1.049-1.045-1.027c-3.282,0.082-6.569-0.143-9.85,0.137
		c0.437-0.688,1.128-0.695,1.827-0.693c1.538,0.004,3.097-0.154,4.608,0.047c1.448,0.193,2.608-0.658,3.969-0.703
		c1.214-0.039,1.748,0.354,1.693,1.635c-0.077,1.801,0.083,3.613-0.05,5.408c-0.114,1.547,0.418,2.156,1.94,1.893h0.001
		C-151.135,35.624-151.139,36.052-151.142,36.478z"/>
	<path style="fill-rule:evenodd;clip-rule:evenodd;fill:#E54E27;" d="M-165.484,25.103c1.616,0.242,3.266-0.639,4.934,0.102
		C-161.875,26.722-163.571,26.712-165.484,25.103z"/>
	<path style="fill-rule:evenodd;clip-rule:evenodd;fill:#E54E27;" d="M-165.081,27.595c0.319,2.42,0.622,4.842,0.607,7.289
		c-0.836-0.359-0.654-1.107-0.663-1.773c-0.013-1.055,0.003-2.107-0.009-3.162c-0.004-0.408,0.096-0.908-0.447-1.059
		c-0.509-0.139-0.964-0.309-0.728-0.936C-166.093,27.351-165.525,27.618-165.081,27.595z"/>
	<path style="fill-rule:evenodd;clip-rule:evenodd;fill:#E54E27;" d="M-151.603,33.585c0-1.09,0-2.182,0-3.271
		C-151.004,31.438-151.063,32.536-151.603,33.585z"/>
	<path style="fill-rule:evenodd;clip-rule:evenodd;fill:#E54E27;" d="M-142.225,38.677c-0.218,0.012-0.436,0.025-0.654,0.039
		c-1.076-0.273-2.246-0.229-3.196-0.934C-144.736,37.847-143.246,37.251-142.225,38.677z"/>
	<path style="fill-rule:evenodd;clip-rule:evenodd;fill:#E54E27;" d="M-145.922,36.108c0.502-0.418,1.008-0.227,1.465-0.311
		c0.381-0.068,1.016-0.662,1.082,0.162c0.045,0.547-0.689,0.527-1.153,0.5C-144.966,36.433-145.474,36.659-145.922,36.108z"/>
	<path style="fill-rule:evenodd;clip-rule:evenodd;fill:#E54E27;" d="M-165.73,21.161c-0.015,0.327-0.029,0.655-0.044,0.983
		c-0.321,0.313-0.612,0.208-0.6-0.188c0.025-0.812-0.416-1.764,0.567-2.35C-165.781,20.125-165.756,20.643-165.73,21.161z"/>
	<path style="fill-rule:evenodd;clip-rule:evenodd;fill:#E54E27;" d="M-155.843,24.821c0.979-0.563,1.476-0.484,2.211-0.193
		C-154.358,25.161-154.869,24.999-155.843,24.821z"/>
	<path style="fill-rule:evenodd;clip-rule:evenodd;fill:#E54E27;" d="M-151.45,28.921c-0.421-0.811-0.35-1.307-0.081-2.086
		C-151.007,27.606-151.065,28.11-151.45,28.921z"/>
	<path style="fill-rule:evenodd;clip-rule:evenodd;fill:#E54E27;" d="M-148.601,37.122c-0.898-0.008-1.74-0.236-2.536-0.643
		C-150.305,36.745-149.168,35.808-148.601,37.122z"/>
	<path style="fill-rule:evenodd;clip-rule:evenodd;fill:#E54E27;" d="M-146.077,37.796c-0.885-0.053-1.76-0.139-2.516-0.674
		C-147.766,37.39-146.652,36.587-146.077,37.796z"/>
	<path style="fill-rule:evenodd;clip-rule:evenodd;fill:#E54E27;" d="M-151.133,35.196c0.424-1.033,1.024-0.664,1.793-0.271
		C-150.002,35.374-150.588,35.116-151.133,35.196L-151.133,35.196z"/>
	<path style="fill-rule:evenodd;clip-rule:evenodd;fill:#FFFFFF;" d="M-140.949,39.065c3.259-0.891,6.51-1.801,9.776-2.656
		c1.094-0.287,1.649-0.756,1.726-2.021c0.209-3.477,0.602-6.947,0.921-10.418c0.171-1.849,0.059-1.998-1.806-2.021
		c-3.753-0.047-7.504-0.066-11.258-0.097c0.004-2.909,0.06-5.818-0.018-8.725c-0.031-1.207,0.375-1.521,1.543-1.512
		c6.874,0.049,13.747,0.024,20.622,0.025c2.05,0,2.472,0.412,2.195,2.489c-0.148,1.112-0.147,2.205-0.088,3.311
		c-0.354,6.875-1.165,13.707-1.732,20.562c-0.136,1.637-0.253,3.275-0.318,4.914c-0.039,0.982-0.437,1.514-1.421,1.775
		c-6.136,1.625-12.259,3.301-18.389,4.947c-0.457,0.121-0.934,0.158-1.402,0.234c-0.588-0.027-0.996-0.186-0.988-0.916
		c0.021-2.902,0.023-5.807-0.009-8.707C-141.602,39.683-141.281,39.394-140.949,39.065z"/>
	<path style="fill-rule:evenodd;clip-rule:evenodd;fill:#FFFFFF;" d="M-115.829,0.167c-8.011-0.003-16.021-0.042-24.03,0.027
		c-1.44,0.013-1.815-0.423-1.752-1.799c0.109-2.33,0.086-4.668,0.008-7c-0.039-1.151,0.396-1.425,1.473-1.42
		c7.744,0.037,15.489,0.044,23.233-0.012c0.931-0.007,1.452,0.423,2.01,0.975C-115.255-5.992-115.24-2.881-115.829,0.167z"/>
	<path style="fill-rule:evenodd;clip-rule:evenodd;fill:#E45125;" d="M-141.565,11.21c-4.393,0.032-8.786,0.067-13.18,0.092
		c-0.619,0.004-1.148-0.102-1.2-0.922c-0.185-2.945-0.388-5.889-0.622-8.832c-0.064-0.803,0.152-1.167,1.018-1.156
		c4.658,0.056,9.316,0.077,13.974,0.111C-141.572,4.072-141.568,7.641-141.565,11.21z"/>
</g>
<g>
	<path style="fill-rule:evenodd;clip-rule:evenodd;fill:#1174B5;" d="M49.956,1.736c13.493-0.001,26.986,0.021,40.479-0.034
		c1.458-0.006,1.853,0.343,1.707,1.845c-0.863,9.077-1.644,18.163-2.434,27.247c-0.792,9.083-1.551,18.169-2.35,27.253
		c-0.871,9.928-1.787,19.85-2.64,29.779c-0.09,1.031-0.527,1.406-1.47,1.666c-10.772,2.982-21.53,6.01-32.289,9.033
		c-0.731,0.205-1.428,0.193-2.158-0.012c-10.807-3.049-21.611-6.094-32.431-9.096c-0.872-0.244-1.124-0.627-1.199-1.506
		c-1.652-19.174-3.334-38.343-5.024-57.513C9.364,21.528,8.555,12.658,7.751,3.79C7.565,1.734,7.552,1.737,9.636,1.737
		C23.075,1.737,36.517,1.737,49.956,1.736z"/>
	<path style="fill-rule:evenodd;clip-rule:evenodd;fill:#31A9DC;" d="M23.468,18.99c0.412-0.634,1.052-0.351,1.586-0.353
		c7.562-0.02,15.123-0.014,22.686-0.014c2.15,0,2.152,0,2.156-2.097c0.002-2.123,0.039-4.248-0.016-6.369
		c-0.027-0.991,0.217-1.408,1.303-1.404c10.713,0.034,21.425,0.03,32.139,0c0.992-0.002,1.318,0.367,1.223,1.309
		c-0.399,3.878-0.794,7.76-1.168,11.642c-0.256,2.68-0.475,5.362-0.712,8.042c-0.407,4.625-0.827,9.25-1.22,13.877
		c-0.348,4.101-0.636,8.208-1.004,12.308c-0.363,4.045-0.888,8.074-1.159,12.123c-0.187,2.797-0.477,5.58-0.702,8.369
		c-0.147,1.844-0.229,3.693-0.353,5.537c-0.065,0.979-0.449,1.637-1.502,1.916c-4.806,1.266-9.639,2.447-14.374,3.943
		c-3.642,1.15-7.369,1.973-10.986,3.176c-1.178,0.393-1.503,0.119-1.482-1.078c0.047-2.867,0.014-5.732,0.016-8.598
		c0-0.637,0.053-1.279-0.293-1.859c0.688-0.621,1.619-0.656,2.416-1.027c5.819-1.604,11.609-3.316,17.437-4.891
		c1.353-0.365,1.935-1.043,2.049-2.529c0.521-6.762,1.197-13.508,1.727-20.267c0.422-5.386,0.957-10.76,1.435-16.14
		c0.353-3.957,0.545-7.928,1.052-11.871c0.056-0.42,0.121-0.839,0.141-1.263c0.076-1.794-0.121-2.035-1.912-2.04
		c-6.505-0.015-13.011-0.001-19.518-0.009c-1.467-0.001-2.937,0.041-4.406-0.012c-8.313,0.108-16.626,0.038-24.937,0.036
		C24.513,19.448,23.928,19.428,23.468,18.99z"/>
	<path style="fill-rule:evenodd;clip-rule:evenodd;fill:#EBEBEB;" d="M51.813,78.854c-0.647,0.535-1.431,0.561-2.209,0.607
		c-6.603-1.879-13.2-3.787-19.819-5.611c-1.193-0.33-1.643-0.84-1.729-2.141c-0.303-4.541-0.73-9.076-1.214-13.604
		c-0.142-1.332,0.292-1.623,1.509-1.584c2.514,0.08,5.035,0.094,7.55-0.002c1.266-0.049,1.624,0.441,1.663,1.629
		c0.062,1.904,0.291,3.801,0.403,5.705c0.04,0.686,0.116,1.26,0.895,1.461c3.691,0.957,7.325,2.139,11.067,2.891
		c0.424-0.262,0.843-0.762,1.292-0.033c-0.808,1.063-0.938,2.273-0.901,3.576c0.063,2.316,0.007,4.633,0.043,6.926
		C50.758,78.6,51.327,78.289,51.813,78.854z"/>
	<path style="fill-rule:evenodd;clip-rule:evenodd;fill:#EBEBEB;" d="M23.468,18.99c8.908-0.012,17.816-0.024,26.725-0.037
		c0.43,1.988,0.078,4,0.185,6c0.031,0.58-0.005,1.164,0.009,1.746c0.037,1.752,0.172,1.918,1.887,1.932
		c3.456,0.028,6.911,0.005,10.368,0.012c0.522,0.001,1.052-0.026,1.564,0.102c0.514,0.128,1.067,0.258,0.858,1.025
		c-0.534,0.29-1.115,0.206-1.682,0.203c-3.282-0.02-6.563-0.006-9.844-0.007c-1.507-0.001-3.018,0.063-4.482-0.402
		c-7.717-0.019-15.432-0.065-23.146-0.027c-1.176,0.006-1.679-0.271-1.75-1.512C23.987,25.009,23.705,22,23.468,18.99z"/>
	<path style="fill-rule:evenodd;clip-rule:evenodd;fill:#31A9DC;" d="M51.134,68.063c-0.402,0.049-0.805,0.096-1.205,0.143
		c0-5.605-0.002-11.209-0.003-16.813c0.364-0.379,0.841-0.394,1.312-0.398c3.6-0.02,7.199-0.031,10.8,0.007
		c0.313,0.002,0.623,0.057,0.908,0.201c0.601,0.414,0.427,1.037,0.363,1.59c-0.421,3.678-0.432,7.389-0.98,11.055
		c-0.139,0.92-0.408,1.643-1.339,1.936c-3.048,0.961-6.135,1.768-9.26,2.432C51.521,68.258,51.317,68.178,51.134,68.063z"/>
	<path style="fill-rule:evenodd;clip-rule:evenodd;fill:#30AADC;" d="M49.056,29.562c4.962-0.011,9.923-0.02,14.886-0.034
		c0.379-0.002,0.723,0.082,1.029,0.306c0.286,0.486,0.262,1.029,0.215,1.55c-0.227,2.476-0.189,4.975-0.552,7.437
		c-0.276,1.873-0.713,2.248-2.586,2.262c-3.932,0.03-7.862,0.06-11.793-0.014c-3.244,0.054-6.491,0.013-9.736,0.026
		c-1.996,0.009-1.996,0.01-2.564,2.001c-0.074,0.26-0.193,0.489-0.43,0.636c-0.466-0.842-0.219-1.76-0.248-2.642
		c-0.033-1.002,0.781-0.8,1.371-0.802c3.25-0.015,6.502-0.057,9.751,0.016c1.161,0.026,1.562-0.297,1.522-1.507
		c-0.084-2.593-0.047-5.192-0.009-7.789C49.923,30.298,49.765,29.791,49.056,29.562z"/>
	<path style="fill-rule:evenodd;clip-rule:evenodd;fill:#ECEBEA;" d="M37.524,43.733c0.014-0.05,0.041-0.101,0.041-0.152
		c0.109-2.997,0.109-3,3.22-2.997c3.136,0.003,6.271,0.011,9.407,0.018c0.49,1.505,0.029,3.049,0.179,4.567
		c0.158,1.611-0.702,3.639,0.442,4.737c1.126,1.076,3.113,0.324,4.718,0.385c1.989,0.074,3.984-0.049,5.973,0.059
		c0.705,0.039,1.671-0.064,1.568,1.173c-4.381-0.352-8.765-0.119-13.146-0.131c-3.085-0.031-6.171-0.057-9.257-0.096
		c-2.481-0.031-2.486-0.037-2.674-2.501C37.866,47.105,37.902,45.4,37.524,43.733z"/>
	<path style="fill-rule:evenodd;clip-rule:evenodd;fill:#FFFFFF;" d="M63.072,51.523c-0.245-0.978-1.042-0.714-1.674-0.718
		c-3.346-0.021-6.694-0.061-10.04,0.016c-1.197,0.027-1.554-0.383-1.48-1.547c0.182-2.886-0.286-5.798,0.314-8.671
		c4.082-0.024,8.165-0.084,12.246-0.049c1.175,0.011,1.656-0.292,1.729-1.573c0.175-3.054,0.525-6.098,0.804-9.147
		c-0.09-1.071-0.919-0.67-1.448-0.675c-4.041-0.033-8.084-0.057-12.125,0.006c-1.154,0.018-1.577-0.297-1.533-1.515
		c0.087-2.383,0.035-4.773,0.021-7.161c-0.002-0.542,0.051-1.057,0.307-1.538c8.394-0.02,16.785-0.026,25.18-0.075
		c1.021-0.007,1.09,0.505,1.021,1.291c-0.37,4.273-0.712,8.55-1.092,12.822c-0.572,6.485-1.184,12.967-1.75,19.451
		c-0.576,6.594-1.119,13.188-1.67,19.785c-0.051,0.604-0.118,1.133-0.847,1.332c-6.413,1.742-12.748,3.775-19.222,5.295
		c-1.922,0.041-1.923,0.041-1.923-2.064c-0.002-2.014,0.091-4.033-0.034-6.039c-0.077-1.227,0.194-2.109,1.278-2.688
		c3.119-0.865,6.224-1.787,9.365-2.563c1.097-0.271,1.335-0.801,1.417-1.848C62.238,59.605,62.676,55.566,63.072,51.523z"/>
</g>
<rect x="264.422" y="-60.037" style="fill-rule:evenodd;clip-rule:evenodd;fill:#FFFFFF;" width="100" height="100"/>
</svg>
