<?xml version="1.0" encoding="iso-8859-1"?>
<!-- Generator: Adobe Illustrator 16.0.0, SVG Export Plug-In . SVG Version: 6.00 Build 0)  -->
<!DOCTYPE svg PUBLIC "-//W3C//DTD SVG 1.1//EN" "http://www.w3.org/Graphics/SVG/1.1/DTD/svg11.dtd">
<svg version="1.1" id="Layer_1" xmlns="http://www.w3.org/2000/svg" xmlns:xlink="http://www.w3.org/1999/xlink" x="0px" y="0px"
	 width="100px" height="100px" viewBox="0 0 100 100" style="enable-background:new 0 0 100 100;" xml:space="preserve">
<g>
	<path style="fill-rule:evenodd;clip-rule:evenodd;fill:#E45125;" d="M50.079,2.014c13.421,0,26.844,0,40.264-0.001
		c2.938,0,2.409,0.012,2.206,2.421c-0.731,8.659-1.554,17.31-2.319,25.965c-1.149,12.985-2.269,25.972-3.428,38.957
		c-0.56,6.279-1.198,12.555-1.743,18.836c-0.079,0.914-0.439,1.273-1.271,1.502c-9.092,2.486-18.172,5.008-27.257,7.518
		c-0.866,0.238-1.78,0.357-2.596,0.713c-2.725,1.188-5.33,0.854-8.132,0.033C36,95.092,26.137,92.428,16.282,89.74
		c-1.064-0.291-1.355-0.764-1.448-1.838C13.863,76.713,12.799,65.529,11.8,54.34c-0.735-8.231-1.388-16.47-2.122-24.702
		C8.917,21.089,8.087,12.547,7.316,4C7.137,2.016,7.19,2.015,9.178,2.015C22.812,2.016,36.446,2.016,50.079,2.014z"/>
	<path style="fill-rule:evenodd;clip-rule:evenodd;fill:#F06726;" d="M23.194,19.895c0.499-0.608,1.188-0.333,1.786-0.334
		c7.741-0.02,15.482-0.052,23.222,0.022c1.448,0.013,1.808-0.439,1.747-1.807c-0.105-2.381,0.01-4.772-0.047-7.156
		c-0.027-1.161,0.389-1.596,1.568-1.593c10.55,0.028,21.101,0.01,31.651,0.023c1.585,0.002,1.769,0.466,1.635,2.078
		c-0.191,2.311-0.623,4.616-0.7,6.904c-0.204,6.014-0.956,11.979-1.455,17.959c-0.402,4.812-0.775,9.644-1.4,14.449
		c-0.391,3.013-0.352,6.099-0.726,9.134c-0.783,6.371-0.993,12.801-1.87,19.166c-0.144,1.041-0.003,2.117-0.043,3.178
		c-0.046,1.227-0.531,1.982-1.879,2.342c-5.073,1.352-10.104,2.855-15.163,4.27c-3.191,0.889-6.396,1.74-9.603,2.572
		c-1.859,0.484-1.994,0.357-1.998-1.555c-0.003-2.439-0.037-4.879,0.018-7.314c0.021-0.869-0.165-1.521-0.957-1.934
		c0.578-0.512,1.374-0.297,2.012-0.613c6.343-1.713,12.667-3.496,19.019-5.178c1.179-0.313,1.66-0.967,1.718-2.125
		c0.358-7.189,1.208-14.338,1.873-21.504c0.107-1.16-0.045-2.336,0.208-3.488c0.248-1.087,0.315-2.201,0.451-3.3
		c0.229-1.851-0.064-2.121-1.95-2.124c-6.47-0.008-12.941,0.011-19.412-0.017c-1.035-0.004-2.131,0.279-3.092-0.397
		c-0.297-0.402-0.368-0.871-0.376-1.347c-0.047-2.733-0.047-5.467,0-8.201c0.009-0.475,0.079-0.945,0.374-1.346
		c0.685-0.563,1.51-0.408,2.288-0.41c6.992-0.014,13.984-0.004,20.975-0.013c0.68,0,1.388,0.137,1.997-0.305
		c0.25-0.219,0.43-0.5,0.427-0.825c-0.03-2.708,0.572-5.368,0.604-8.069c-0.428-1.014-1.339-0.702-2.073-0.706
		c-11.354-0.049-22.707,0.018-34.063,0.049c-4.775,0.013-9.551,0.01-14.326-0.005C24.797,20.371,23.918,20.505,23.194,19.895z"/>
	<path style="fill-rule:evenodd;clip-rule:evenodd;fill:#EBEBEB;" d="M49.935,41.406c7.566,0.025,15.134,0.053,22.7,0.073
		c2.234,0.006,2.289,0,2.083,2.252c-0.119,1.304-0.127,2.637-0.553,3.903c-0.816-0.842-0.501-1.885-0.477-2.86
		c0.054-2.199-0.122-2.433-2.237-2.437c-6.342-0.013-12.685-0.012-19.027,0c-1.871,0.004-1.982,0.122-2,1.969
		c-0.021,1.903,0.01,3.806-0.014,5.709c-0.008,0.732,0.064,1.493-0.459,2.121c-0.458,0.333-0.994,0.331-1.52,0.326
		c-7.013-0.06-14.027,0.163-21.04-0.12c-0.704-0.029-1.382-0.051-1.806-0.737c-0.26-0.617-0.196-1.217,0.106-1.803
		c-0.579-6.857-1.192-13.712-1.72-20.573c-0.239-3.113-0.823-6.198-0.778-9.334c17.39-0.025,34.778-0.044,52.169-0.092
		c1.01-0.002,1.555,0.207,1.249,1.331c-2.119-0.593-4.29-0.439-6.45-0.442c-5.879-0.004-11.759-0.01-17.637,0.004
		c-1.968,0.005-2.079,0.128-2.098,2.057c-0.016,1.642-0.015,3.284,0,4.925c0.018,2.026,0.152,2.179,2.164,2.184
		c6.46,0.016,12.923,0.004,19.385,0.006c0.688,0.001,1.378-0.017,2.064,0.015c0.58,0.026,1.177,0.014,1.63,0.481
		c-0.775,0.493-1.641,0.253-2.458,0.255c-7.184,0.024-14.367,0.009-21.551,0.012c-0.579,0-1.158,0.045-1.737,0.069
		c-0.671,0.569-1.487,0.479-2.272,0.482c-3.384,0.014-6.77-0.01-10.154,0.012c-1.906,0.013-2.204,0.291-1.976,2.115
		c0.25,1.996,0.341,4.002,0.521,6.001c0.119,1.316,0.696,1.718,1.907,1.712c3.278-0.016,6.558-0.014,9.838,0
		C48.521,41.026,49.277,40.958,49.935,41.406z"/>
	<path style="fill-rule:evenodd;clip-rule:evenodd;fill:#EBEBEB;" d="M50.902,80.068c-0.584,0.559-1.275,0.199-1.922,0.23
		c-6.466-1.791-12.922-3.621-19.407-5.344c-1.159-0.307-1.721-0.76-1.802-1.969c-0.176-2.641-0.278-5.291-0.746-7.904
		c-0.699-1.531-0.315-3.182-0.436-4.766c-0.063-0.83-0.719-1.656-0.171-2.525l-0.04,0.016c0.76-0.5,1.62-0.346,2.45-0.369
		c2.319-0.068,4.642,0.111,6.961-0.113c1.044-0.1,1.663,0.398,1.895,1.469c0.359,1.666,0.362,3.361,0.411,5.039
		c0.036,1.248,0.203,2.17,1.619,2.393c0.254,0.039,0.443,0.277,0.643,0.449l0.005,0.002c0.81,0.355,1.795,0.018,2.536,0.643h0.008
		c0.771,0.477,1.775,0.082,2.516,0.674l0.001-0.014c1.057,0.471,2.328,0.061,3.322,0.799c0.525,0.545,1.403-0.109,1.896,0.553
		c-0.467,2.969-0.174,5.959-0.241,8.939C50.387,78.924,50.702,79.479,50.902,80.068z"/>
	<path style="fill-rule:evenodd;clip-rule:evenodd;fill:#F06726;" d="M50.551,69.262c-0.645-0.105-1.359,0.182-1.93-0.35
		c0.206-0.203,0.427-0.195,0.654-0.039c0.45,0.008,0.723-0.234,0.721-0.66c-0.018-4.762-0.051-9.521-0.08-14.28
		c-0.639-0.949-1.579-1.102-2.64-1.097c-4.602,0.021-9.205-0.033-13.806,0.026c-2.485,0.033-4.942-0.189-7.4-0.476
		c-0.115-0.015-0.23-0.03-0.346-0.046c-0.279-0.341-0.287-0.67,0.044-0.983c0.242,0.522,0.598,0.776,1.227,0.773
		c7.638-0.044,15.276-0.06,22.914-0.083c0.457-0.444,1.037-0.496,1.627-0.499c3.018-0.016,6.039-0.056,9.057,0.012
		c2.407,0.055,2.995,0.756,2.814,3.143c-0.256,3.377-0.703,6.738-0.932,10.117c-0.069,1.021-0.544,1.736-1.502,2.018
		c-3.202,0.939-6.434,1.77-9.669,2.582C51.043,69.486,50.781,69.422,50.551,69.262z"/>
	<path style="fill-rule:evenodd;clip-rule:evenodd;fill:#E54E27;" d="M26.071,52.387c7.529-0.012,15.06,0.005,22.589-0.06
		c1.322-0.011,1.322,0.693,1.256,1.605c-5.5,0-11.001-0.05-16.5,0.025c-1.918,0.025-3.698-0.281-5.383-1.173
		C27.417,52.459,26.639,52.938,26.071,52.387z"/>
	<path style="fill-rule:evenodd;clip-rule:evenodd;fill:#E54E27;" d="M40.358,66.674c-2.422-0.25-2.398-0.254-2.577-2.604
		c-0.137-1.793-0.376-3.578-0.507-5.373c-0.053-0.721-0.288-1.049-1.045-1.027c-3.282,0.082-6.569-0.143-9.85,0.137
		c0.437-0.688,1.128-0.695,1.827-0.693c1.538,0.004,3.097-0.154,4.608,0.047c1.448,0.193,2.608-0.658,3.969-0.703
		c1.214-0.039,1.748,0.354,1.693,1.635c-0.077,1.801,0.083,3.613-0.05,5.408c-0.114,1.547,0.418,2.156,1.94,1.893h0.001
		C40.365,65.82,40.361,66.248,40.358,66.674z"/>
	<path style="fill-rule:evenodd;clip-rule:evenodd;fill:#E54E27;" d="M26.016,55.299c1.616,0.242,3.266-0.639,4.934,0.102
		C29.625,56.918,27.929,56.908,26.016,55.299z"/>
	<path style="fill-rule:evenodd;clip-rule:evenodd;fill:#E54E27;" d="M26.419,57.791c0.319,2.42,0.622,4.842,0.607,7.289
		c-0.836-0.359-0.654-1.107-0.663-1.773c-0.013-1.055,0.003-2.107-0.009-3.162c-0.004-0.408,0.096-0.908-0.447-1.059
		c-0.509-0.139-0.964-0.309-0.728-0.936C25.407,57.547,25.975,57.814,26.419,57.791z"/>
	<path style="fill-rule:evenodd;clip-rule:evenodd;fill:#E54E27;" d="M39.897,63.781c0-1.09,0-2.182,0-3.271
		C40.496,61.635,40.437,62.732,39.897,63.781z"/>
	<path style="fill-rule:evenodd;clip-rule:evenodd;fill:#E54E27;" d="M49.275,68.873c-0.218,0.012-0.436,0.025-0.654,0.039
		c-1.076-0.273-2.246-0.229-3.196-0.934C46.764,68.043,48.254,67.447,49.275,68.873z"/>
	<path style="fill-rule:evenodd;clip-rule:evenodd;fill:#E54E27;" d="M45.578,66.305c0.502-0.418,1.008-0.227,1.465-0.311
		c0.381-0.068,1.016-0.662,1.082,0.162c0.045,0.547-0.689,0.527-1.153,0.5C46.534,66.629,46.026,66.855,45.578,66.305z"/>
	<path style="fill-rule:evenodd;clip-rule:evenodd;fill:#E54E27;" d="M25.77,51.357c-0.015,0.327-0.029,0.655-0.044,0.983
		c-0.321,0.313-0.612,0.208-0.6-0.188c0.025-0.812-0.416-1.764,0.567-2.35C25.719,50.321,25.744,50.839,25.77,51.357z"/>
	<path style="fill-rule:evenodd;clip-rule:evenodd;fill:#E54E27;" d="M35.657,55.018c0.979-0.563,1.476-0.484,2.211-0.193
		C37.142,55.357,36.631,55.195,35.657,55.018z"/>
	<path style="fill-rule:evenodd;clip-rule:evenodd;fill:#E54E27;" d="M40.05,59.117c-0.421-0.811-0.35-1.307-0.081-2.086
		C40.493,57.803,40.435,58.307,40.05,59.117z"/>
	<path style="fill-rule:evenodd;clip-rule:evenodd;fill:#E54E27;" d="M42.899,67.318c-0.898-0.008-1.74-0.236-2.536-0.643
		C41.195,66.941,42.332,66.004,42.899,67.318z"/>
	<path style="fill-rule:evenodd;clip-rule:evenodd;fill:#E54E27;" d="M45.423,67.992c-0.885-0.053-1.76-0.139-2.516-0.674
		C43.734,67.586,44.848,66.783,45.423,67.992z"/>
	<path style="fill-rule:evenodd;clip-rule:evenodd;fill:#E54E27;" d="M40.367,65.393c0.424-1.033,1.024-0.664,1.793-0.271
		C41.498,65.57,40.912,65.313,40.367,65.393L40.367,65.393z"/>
	<path style="fill-rule:evenodd;clip-rule:evenodd;fill:#FFFFFF;" d="M50.551,69.262c3.259-0.891,6.51-1.801,9.776-2.656
		c1.094-0.287,1.649-0.756,1.726-2.021c0.209-3.477,0.602-6.947,0.921-10.418c0.171-1.849,0.059-1.998-1.806-2.021
		c-3.753-0.047-7.504-0.066-11.258-0.097c0.004-2.909,0.06-5.818-0.018-8.725c-0.031-1.207,0.375-1.521,1.543-1.512
		c6.874,0.049,13.747,0.024,20.622,0.025c2.05,0,2.472,0.412,2.195,2.489c-0.148,1.112-0.147,2.205-0.088,3.311
		C73.812,54.51,73,61.342,72.433,68.197c-0.136,1.637-0.253,3.275-0.318,4.914c-0.039,0.982-0.437,1.514-1.421,1.775
		c-6.136,1.625-12.259,3.301-18.389,4.947c-0.457,0.121-0.934,0.158-1.402,0.234c-0.588-0.027-0.996-0.186-0.988-0.916
		c0.021-2.902,0.023-5.807-0.009-8.707C49.898,69.879,50.219,69.59,50.551,69.262z"/>
	<path style="fill-rule:evenodd;clip-rule:evenodd;fill:#FFFFFF;" d="M75.671,30.363c-8.011-0.003-16.021-0.042-24.03,0.027
		c-1.44,0.013-1.815-0.423-1.752-1.799c0.109-2.33,0.086-4.668,0.008-7c-0.039-1.151,0.396-1.425,1.473-1.42
		c7.744,0.037,15.489,0.044,23.233-0.012c0.931-0.007,1.452,0.423,2.01,0.975C76.245,24.204,76.26,27.315,75.671,30.363z"/>
	<path style="fill-rule:evenodd;clip-rule:evenodd;fill:#E45125;" d="M49.935,41.406c-4.393,0.032-8.786,0.067-13.18,0.092
		c-0.619,0.004-1.148-0.102-1.2-0.922c-0.185-2.945-0.388-5.889-0.622-8.832c-0.064-0.803,0.152-1.167,1.018-1.156
		c4.658,0.056,9.316,0.077,13.974,0.111C49.928,34.268,49.932,37.837,49.935,41.406z"/>
</g>
</svg>
