<?xml version="1.0" encoding="iso-8859-1"?>
<!-- Generator: Adobe Illustrator 16.0.0, SVG Export Plug-In . SVG Version: 6.00 Build 0)  -->
<!DOCTYPE svg PUBLIC "-//W3C//DTD SVG 1.1//EN" "http://www.w3.org/Graphics/SVG/1.1/DTD/svg11.dtd">
<svg version="1.1" id="Layer_1" xmlns="http://www.w3.org/2000/svg" xmlns:xlink="http://www.w3.org/1999/xlink" x="0px" y="0px"
	 width="100px" height="100px" viewBox="0 0 100 100" style="enable-background:new 0 0 100 100;" xml:space="preserve">
<g>
	<path style="fill-rule:evenodd;clip-rule:evenodd;fill:#E45125;" d="M-141.421-28.182c13.421,0,26.844,0,40.264-0.001
		c2.938,0,2.409,0.012,2.206,2.421c-0.731,8.659-1.554,17.31-2.319,25.965c-1.149,12.985-2.269,25.972-3.428,38.957
		c-0.56,6.279-1.198,12.555-1.743,18.836c-0.079,0.914-0.439,1.273-1.271,1.502c-9.092,2.486-18.172,5.008-27.257,7.518
		c-0.866,0.238-1.78,0.357-2.596,0.713c-2.725,1.188-5.33,0.854-8.132,0.033c-9.803-2.865-19.667-5.529-29.521-8.217
		c-1.064-0.291-1.355-0.764-1.448-1.838c-0.971-11.189-2.035-22.373-3.034-33.563c-0.735-8.231-1.388-16.47-2.122-24.702
		c-0.762-8.549-1.591-17.091-2.363-25.638c-0.179-1.984-0.125-1.985,1.862-1.985C-168.688-28.18-155.054-28.181-141.421-28.182z"/>
	<path style="fill-rule:evenodd;clip-rule:evenodd;fill:#F06726;" d="M-168.306-10.302c0.499-0.608,1.188-0.333,1.786-0.334
		c7.741-0.02,15.482-0.052,23.222,0.022c1.448,0.013,1.808-0.439,1.747-1.807c-0.105-2.381,0.01-4.772-0.047-7.156
		c-0.027-1.161,0.389-1.596,1.568-1.593c10.55,0.028,21.101,0.01,31.651,0.023c1.585,0.002,1.769,0.466,1.635,2.078
		c-0.191,2.311-0.623,4.616-0.7,6.904c-0.204,6.014-0.956,11.979-1.455,17.959c-0.402,4.812-0.775,9.644-1.4,14.449
		c-0.391,3.013-0.352,6.099-0.726,9.134c-0.783,6.371-0.993,12.801-1.87,19.166c-0.144,1.041-0.003,2.117-0.043,3.178
		c-0.046,1.227-0.531,1.982-1.879,2.342c-5.073,1.352-10.104,2.855-15.163,4.27c-3.191,0.889-6.396,1.74-9.603,2.572
		c-1.859,0.484-1.994,0.357-1.998-1.555c-0.003-2.439-0.037-4.879,0.018-7.314c0.021-0.869-0.165-1.521-0.957-1.934
		c0.578-0.512,1.374-0.297,2.012-0.613c6.343-1.713,12.667-3.496,19.019-5.178c1.179-0.313,1.66-0.967,1.718-2.125
		c0.358-7.189,1.208-14.338,1.873-21.504c0.107-1.16-0.045-2.336,0.208-3.488c0.248-1.087,0.315-2.201,0.451-3.3
		c0.229-1.851-0.064-2.121-1.95-2.124c-6.47-0.008-12.941,0.011-19.412-0.017c-1.035-0.004-2.131,0.279-3.092-0.397
		c-0.297-0.402-0.368-0.871-0.376-1.347c-0.047-2.733-0.047-5.467,0-8.201c0.009-0.475,0.079-0.945,0.374-1.346
		c0.685-0.563,1.51-0.408,2.288-0.41c6.992-0.014,13.984-0.004,20.975-0.013c0.68,0,1.388,0.137,1.997-0.305
		c0.25-0.219,0.43-0.5,0.427-0.825c-0.03-2.708,0.572-5.368,0.604-8.069c-0.428-1.014-1.339-0.702-2.073-0.706
		c-11.354-0.049-22.707,0.018-34.063,0.049c-4.775,0.013-9.551,0.01-14.326-0.005C-166.703-9.825-167.582-9.691-168.306-10.302z"/>
	<path style="fill-rule:evenodd;clip-rule:evenodd;fill:#EBEBEB;" d="M-141.565,11.21c7.566,0.025,15.134,0.053,22.7,0.073
		c2.234,0.006,2.289,0,2.083,2.252c-0.119,1.304-0.127,2.637-0.553,3.903c-0.816-0.842-0.501-1.885-0.477-2.86
		c0.054-2.199-0.122-2.433-2.237-2.437c-6.342-0.013-12.685-0.012-19.027,0c-1.871,0.004-1.982,0.122-2,1.969
		c-0.021,1.903,0.01,3.806-0.014,5.709c-0.008,0.732,0.064,1.493-0.459,2.121c-0.458,0.333-0.994,0.331-1.52,0.326
		c-7.013-0.06-14.027,0.163-21.04-0.12c-0.704-0.029-1.382-0.051-1.806-0.737c-0.26-0.617-0.196-1.217,0.106-1.803
		c-0.579-6.857-1.192-13.712-1.72-20.573c-0.239-3.113-0.823-6.198-0.778-9.334c17.39-0.025,34.778-0.044,52.169-0.092
		c1.01-0.002,1.555,0.207,1.249,1.331c-2.119-0.593-4.29-0.439-6.45-0.442c-5.879-0.004-11.759-0.01-17.637,0.004
		c-1.968,0.005-2.079,0.128-2.098,2.057c-0.016,1.642-0.015,3.284,0,4.925c0.018,2.026,0.152,2.179,2.164,2.184
		c6.46,0.016,12.923,0.004,19.385,0.006c0.688,0.001,1.378-0.017,2.064,0.015c0.58,0.026,1.177,0.014,1.63,0.481
		c-0.775,0.493-1.641,0.253-2.458,0.255c-7.184,0.024-14.367,0.009-21.551,0.012c-0.579,0-1.158,0.045-1.737,0.069
		c-0.671,0.569-1.487,0.479-2.272,0.482c-3.384,0.014-6.77-0.01-10.154,0.012c-1.906,0.013-2.204,0.291-1.976,2.115
		c0.25,1.996,0.341,4.002,0.521,6.001c0.119,1.316,0.696,1.718,1.907,1.712c3.278-0.016,6.558-0.014,9.838,0
		C-142.979,10.83-142.223,10.761-141.565,11.21z"/>
	<path style="fill-rule:evenodd;clip-rule:evenodd;fill:#EBEBEB;" d="M-140.598,49.872c-0.584,0.559-1.275,0.199-1.922,0.23
		c-6.466-1.791-12.922-3.621-19.407-5.344c-1.159-0.307-1.721-0.76-1.802-1.969c-0.176-2.641-0.278-5.291-0.746-7.904
		c-0.699-1.531-0.315-3.182-0.436-4.766c-0.063-0.83-0.719-1.656-0.171-2.525l-0.04,0.016c0.76-0.5,1.62-0.346,2.45-0.369
		c2.319-0.068,4.642,0.111,6.961-0.113c1.044-0.1,1.663,0.398,1.895,1.469c0.359,1.666,0.362,3.361,0.411,5.039
		c0.036,1.248,0.203,2.17,1.619,2.393c0.254,0.039,0.443,0.277,0.643,0.449l0.005,0.002c0.81,0.355,1.795,0.018,2.536,0.643h0.008
		c0.771,0.477,1.775,0.082,2.516,0.674l0.001-0.014c1.057,0.471,2.328,0.061,3.322,0.799c0.525,0.545,1.403-0.109,1.896,0.553
		c-0.467,2.969-0.174,5.959-0.241,8.939C-141.113,48.728-140.798,49.282-140.598,49.872z"/>
	<path style="fill-rule:evenodd;clip-rule:evenodd;fill:#F06726;" d="M-140.949,39.065c-0.645-0.105-1.359,0.182-1.93-0.35
		c0.206-0.203,0.427-0.195,0.654-0.039c0.45,0.008,0.723-0.234,0.721-0.66c-0.018-4.762-0.051-9.521-0.08-14.28
		c-0.639-0.949-1.579-1.102-2.64-1.097c-4.602,0.021-9.205-0.033-13.806,0.026c-2.485,0.033-4.942-0.189-7.4-0.476
		c-0.115-0.015-0.23-0.03-0.346-0.046c-0.279-0.341-0.287-0.67,0.044-0.983c0.242,0.522,0.598,0.776,1.227,0.773
		c7.638-0.044,15.276-0.06,22.914-0.083c0.457-0.444,1.037-0.496,1.627-0.499c3.018-0.016,6.039-0.056,9.057,0.012
		c2.407,0.055,2.995,0.756,2.814,3.143c-0.256,3.377-0.703,6.738-0.932,10.117c-0.069,1.021-0.544,1.736-1.502,2.018
		c-3.202,0.939-6.434,1.77-9.669,2.582C-140.457,39.29-140.719,39.226-140.949,39.065z"/>
	<path style="fill-rule:evenodd;clip-rule:evenodd;fill:#E54E27;" d="M-165.429,22.19c7.529-0.012,15.06,0.005,22.589-0.06
		c1.322-0.011,1.322,0.693,1.256,1.605c-5.5,0-11.001-0.05-16.5,0.025c-1.918,0.025-3.698-0.281-5.383-1.173
		C-164.083,22.263-164.861,22.742-165.429,22.19z"/>
	<path style="fill-rule:evenodd;clip-rule:evenodd;fill:#E54E27;" d="M-151.142,36.478c-2.422-0.25-2.398-0.254-2.577-2.604
		c-0.137-1.793-0.376-3.578-0.507-5.373c-0.053-0.721-0.288-1.049-1.045-1.027c-3.282,0.082-6.569-0.143-9.85,0.137
		c0.437-0.688,1.128-0.695,1.827-0.693c1.538,0.004,3.097-0.154,4.608,0.047c1.448,0.193,2.608-0.658,3.969-0.703
		c1.214-0.039,1.748,0.354,1.693,1.635c-0.077,1.801,0.083,3.613-0.05,5.408c-0.114,1.547,0.418,2.156,1.94,1.893h0.001
		C-151.135,35.624-151.139,36.052-151.142,36.478z"/>
	<path style="fill-rule:evenodd;clip-rule:evenodd;fill:#E54E27;" d="M-165.484,25.103c1.616,0.242,3.266-0.639,4.934,0.102
		C-161.875,26.722-163.571,26.712-165.484,25.103z"/>
	<path style="fill-rule:evenodd;clip-rule:evenodd;fill:#E54E27;" d="M-165.081,27.595c0.319,2.42,0.622,4.842,0.607,7.289
		c-0.836-0.359-0.654-1.107-0.663-1.773c-0.013-1.055,0.003-2.107-0.009-3.162c-0.004-0.408,0.096-0.908-0.447-1.059
		c-0.509-0.139-0.964-0.309-0.728-0.936C-166.093,27.351-165.525,27.618-165.081,27.595z"/>
	<path style="fill-rule:evenodd;clip-rule:evenodd;fill:#E54E27;" d="M-151.603,33.585c0-1.09,0-2.182,0-3.271
		C-151.004,31.438-151.063,32.536-151.603,33.585z"/>
	<path style="fill-rule:evenodd;clip-rule:evenodd;fill:#E54E27;" d="M-142.225,38.677c-0.218,0.012-0.436,0.025-0.654,0.039
		c-1.076-0.273-2.246-0.229-3.196-0.934C-144.736,37.847-143.246,37.251-142.225,38.677z"/>
	<path style="fill-rule:evenodd;clip-rule:evenodd;fill:#E54E27;" d="M-145.922,36.108c0.502-0.418,1.008-0.227,1.465-0.311
		c0.381-0.068,1.016-0.662,1.082,0.162c0.045,0.547-0.689,0.527-1.153,0.5C-144.966,36.433-145.474,36.659-145.922,36.108z"/>
	<path style="fill-rule:evenodd;clip-rule:evenodd;fill:#E54E27;" d="M-165.73,21.161c-0.015,0.327-0.029,0.655-0.044,0.983
		c-0.321,0.313-0.612,0.208-0.6-0.188c0.025-0.812-0.416-1.764,0.567-2.35C-165.781,20.125-165.756,20.643-165.73,21.161z"/>
	<path style="fill-rule:evenodd;clip-rule:evenodd;fill:#E54E27;" d="M-155.843,24.821c0.979-0.563,1.476-0.484,2.211-0.193
		C-154.358,25.161-154.869,24.999-155.843,24.821z"/>
	<path style="fill-rule:evenodd;clip-rule:evenodd;fill:#E54E27;" d="M-151.45,28.921c-0.421-0.811-0.35-1.307-0.081-2.086
		C-151.007,27.606-151.065,28.11-151.45,28.921z"/>
	<path style="fill-rule:evenodd;clip-rule:evenodd;fill:#E54E27;" d="M-148.601,37.122c-0.898-0.008-1.74-0.236-2.536-0.643
		C-150.305,36.745-149.168,35.808-148.601,37.122z"/>
	<path style="fill-rule:evenodd;clip-rule:evenodd;fill:#E54E27;" d="M-146.077,37.796c-0.885-0.053-1.76-0.139-2.516-0.674
		C-147.766,37.39-146.652,36.587-146.077,37.796z"/>
	<path style="fill-rule:evenodd;clip-rule:evenodd;fill:#E54E27;" d="M-151.133,35.196c0.424-1.033,1.024-0.664,1.793-0.271
		C-150.002,35.374-150.588,35.116-151.133,35.196L-151.133,35.196z"/>
	<path style="fill-rule:evenodd;clip-rule:evenodd;fill:#FFFFFF;" d="M-140.949,39.065c3.259-0.891,6.51-1.801,9.776-2.656
		c1.094-0.287,1.649-0.756,1.726-2.021c0.209-3.477,0.602-6.947,0.921-10.418c0.171-1.849,0.059-1.998-1.806-2.021
		c-3.753-0.047-7.504-0.066-11.258-0.097c0.004-2.909,0.06-5.818-0.018-8.725c-0.031-1.207,0.375-1.521,1.543-1.512
		c6.874,0.049,13.747,0.024,20.622,0.025c2.05,0,2.472,0.412,2.195,2.489c-0.148,1.112-0.147,2.205-0.088,3.311
		c-0.354,6.875-1.165,13.707-1.732,20.562c-0.136,1.637-0.253,3.275-0.318,4.914c-0.039,0.982-0.437,1.514-1.421,1.775
		c-6.136,1.625-12.259,3.301-18.389,4.947c-0.457,0.121-0.934,0.158-1.402,0.234c-0.588-0.027-0.996-0.186-0.988-0.916
		c0.021-2.902,0.023-5.807-0.009-8.707C-141.602,39.683-141.281,39.394-140.949,39.065z"/>
	<path style="fill-rule:evenodd;clip-rule:evenodd;fill:#FFFFFF;" d="M-115.829,0.167c-8.011-0.003-16.021-0.042-24.03,0.027
		c-1.44,0.013-1.815-0.423-1.752-1.799c0.109-2.33,0.086-4.668,0.008-7c-0.039-1.151,0.396-1.425,1.473-1.42
		c7.744,0.037,15.489,0.044,23.233-0.012c0.931-0.007,1.452,0.423,2.01,0.975C-115.255-5.992-115.24-2.881-115.829,0.167z"/>
	<path style="fill-rule:evenodd;clip-rule:evenodd;fill:#E45125;" d="M-141.565,11.21c-4.393,0.032-8.786,0.067-13.18,0.092
		c-0.619,0.004-1.148-0.102-1.2-0.922c-0.185-2.945-0.388-5.889-0.622-8.832c-0.064-0.803,0.152-1.167,1.018-1.156
		c4.658,0.056,9.316,0.077,13.974,0.111C-141.572,4.072-141.568,7.641-141.565,11.21z"/>
</g>
<g>
	<path style="fill-rule:evenodd;clip-rule:evenodd;fill:#1174B5;" d="M-142.19-142.264c13.493-0.001,26.986,0.021,40.479-0.034
		c1.458-0.006,1.853,0.343,1.707,1.845c-0.863,9.077-1.644,18.163-2.434,27.247c-0.792,9.083-1.551,18.169-2.35,27.253
		c-0.871,9.928-1.787,19.85-2.64,29.779c-0.09,1.031-0.527,1.406-1.47,1.666c-10.772,2.982-21.53,6.01-32.289,9.033
		c-0.731,0.205-1.428,0.193-2.158-0.012c-10.807-3.049-21.611-6.094-32.431-9.096c-0.872-0.244-1.124-0.627-1.199-1.506
		c-1.652-19.174-3.334-38.343-5.024-57.513c-0.783-8.872-1.593-17.741-2.396-26.61c-0.186-2.055-0.199-2.052,1.885-2.052
		C-169.071-142.263-155.63-142.263-142.19-142.264z"/>
	<path style="fill-rule:evenodd;clip-rule:evenodd;fill:#31A9DC;" d="M-168.679-125.01c0.412-0.634,1.052-0.351,1.586-0.353
		c7.562-0.02,15.123-0.014,22.686-0.014c2.15,0,2.152,0,2.156-2.097c0.002-2.123,0.039-4.248-0.016-6.369
		c-0.027-0.991,0.217-1.408,1.303-1.404c10.713,0.034,21.425,0.03,32.139,0c0.992-0.002,1.318,0.367,1.223,1.309
		c-0.399,3.878-0.794,7.76-1.168,11.642c-0.256,2.68-0.475,5.362-0.712,8.042c-0.407,4.625-0.827,9.25-1.22,13.877
		c-0.348,4.101-0.636,8.208-1.004,12.308c-0.363,4.045-0.888,8.074-1.159,12.123c-0.187,2.797-0.477,5.58-0.702,8.369
		c-0.147,1.844-0.229,3.693-0.353,5.537c-0.065,0.979-0.449,1.637-1.502,1.916c-4.806,1.266-9.639,2.447-14.374,3.943
		c-3.642,1.15-7.369,1.973-10.986,3.176c-1.178,0.393-1.503,0.119-1.482-1.078c0.047-2.867,0.014-5.732,0.016-8.598
		c0-0.637,0.053-1.279-0.293-1.859c0.688-0.621,1.619-0.656,2.416-1.027c5.819-1.604,11.609-3.316,17.437-4.891
		c1.353-0.365,1.935-1.043,2.049-2.529c0.521-6.762,1.197-13.508,1.727-20.267c0.422-5.386,0.957-10.76,1.435-16.14
		c0.353-3.957,0.545-7.928,1.052-11.871c0.056-0.42,0.121-0.839,0.141-1.263c0.076-1.794-0.121-2.035-1.912-2.04
		c-6.505-0.015-13.011-0.001-19.518-0.009c-1.467-0.001-2.937,0.041-4.406-0.012c-8.313,0.108-16.626,0.038-24.937,0.036
		C-167.634-124.552-168.219-124.572-168.679-125.01z"/>
	<path style="fill-rule:evenodd;clip-rule:evenodd;fill:#EBEBEB;" d="M-140.334-65.146c-0.647,0.535-1.431,0.561-2.209,0.607
		c-6.603-1.879-13.2-3.787-19.819-5.611c-1.193-0.33-1.643-0.84-1.729-2.141c-0.303-4.541-0.73-9.076-1.214-13.604
		c-0.142-1.332,0.292-1.623,1.509-1.584c2.514,0.08,5.035,0.094,7.55-0.002c1.266-0.049,1.624,0.441,1.663,1.629
		c0.062,1.904,0.291,3.801,0.403,5.705c0.04,0.686,0.116,1.26,0.895,1.461c3.691,0.957,7.325,2.139,11.067,2.891
		c0.424-0.262,0.843-0.762,1.292-0.033c-0.808,1.063-0.938,2.273-0.901,3.576c0.063,2.316,0.007,4.633,0.043,6.926
		C-141.389-65.4-140.819-65.711-140.334-65.146z"/>
	<path style="fill-rule:evenodd;clip-rule:evenodd;fill:#EBEBEB;" d="M-168.679-125.01c8.908-0.012,17.816-0.024,26.725-0.037
		c0.43,1.988,0.078,4,0.185,6c0.031,0.58-0.005,1.164,0.009,1.746c0.037,1.752,0.172,1.918,1.887,1.932
		c3.456,0.028,6.911,0.005,10.368,0.012c0.522,0.001,1.052-0.026,1.564,0.102c0.514,0.128,1.067,0.258,0.858,1.025
		c-0.534,0.29-1.115,0.206-1.682,0.203c-3.282-0.02-6.563-0.006-9.844-0.007c-1.507-0.001-3.018,0.063-4.482-0.402
		c-7.717-0.019-15.432-0.065-23.146-0.027c-1.176,0.006-1.679-0.271-1.75-1.512C-168.159-118.991-168.441-122-168.679-125.01z"/>
	<path style="fill-rule:evenodd;clip-rule:evenodd;fill:#31A9DC;" d="M-141.013-75.938c-0.402,0.049-0.805,0.096-1.205,0.143
		c0-5.605-0.002-11.209-0.003-16.813c0.364-0.379,0.841-0.394,1.312-0.398c3.6-0.02,7.199-0.031,10.8,0.007
		c0.313,0.002,0.623,0.057,0.908,0.201c0.601,0.414,0.427,1.037,0.363,1.59c-0.421,3.678-0.432,7.389-0.98,11.055
		c-0.139,0.92-0.408,1.643-1.339,1.936c-3.048,0.961-6.135,1.768-9.26,2.432C-140.625-75.742-140.829-75.822-141.013-75.938z"/>
	<path style="fill-rule:evenodd;clip-rule:evenodd;fill:#30AADC;" d="M-143.091-114.438c4.962-0.011,9.923-0.02,14.886-0.034
		c0.379-0.002,0.723,0.082,1.029,0.306c0.286,0.486,0.262,1.029,0.215,1.55c-0.227,2.476-0.189,4.975-0.552,7.437
		c-0.276,1.873-0.713,2.248-2.586,2.262c-3.932,0.03-7.862,0.06-11.793-0.014c-3.244,0.054-6.491,0.013-9.736,0.026
		c-1.996,0.009-1.996,0.01-2.564,2.001c-0.074,0.26-0.193,0.489-0.43,0.636c-0.466-0.842-0.219-1.76-0.248-2.642
		c-0.033-1.002,0.781-0.8,1.371-0.802c3.25-0.015,6.502-0.057,9.751,0.016c1.161,0.026,1.562-0.297,1.522-1.507
		c-0.084-2.593-0.047-5.192-0.009-7.789C-142.224-113.702-142.382-114.209-143.091-114.438z"/>
	<path style="fill-rule:evenodd;clip-rule:evenodd;fill:#ECEBEA;" d="M-154.622-100.267c0.014-0.05,0.041-0.101,0.041-0.152
		c0.109-2.997,0.109-3,3.22-2.997c3.136,0.003,6.271,0.011,9.407,0.018c0.49,1.505,0.029,3.049,0.179,4.567
		c0.158,1.611-0.702,3.639,0.442,4.737c1.126,1.076,3.113,0.324,4.718,0.385c1.989,0.074,3.984-0.049,5.973,0.059
		c0.705,0.039,1.671-0.064,1.568,1.173c-4.381-0.352-8.765-0.119-13.146-0.131c-3.085-0.031-6.171-0.057-9.257-0.096
		c-2.481-0.031-2.486-0.037-2.674-2.501C-154.28-96.895-154.244-98.6-154.622-100.267z"/>
	<path style="fill-rule:evenodd;clip-rule:evenodd;fill:#FFFFFF;" d="M-129.074-92.477c-0.245-0.978-1.042-0.714-1.674-0.718
		c-3.346-0.021-6.694-0.061-10.04,0.016c-1.197,0.027-1.554-0.383-1.48-1.547c0.182-2.886-0.286-5.798,0.314-8.671
		c4.082-0.024,8.165-0.084,12.246-0.049c1.175,0.011,1.656-0.292,1.729-1.573c0.175-3.054,0.525-6.098,0.804-9.147
		c-0.09-1.071-0.919-0.67-1.448-0.675c-4.041-0.033-8.084-0.057-12.125,0.006c-1.154,0.018-1.577-0.297-1.533-1.515
		c0.087-2.383,0.035-4.773,0.021-7.161c-0.002-0.542,0.051-1.057,0.307-1.538c8.394-0.02,16.785-0.026,25.18-0.075
		c1.021-0.007,1.09,0.505,1.021,1.291c-0.37,4.273-0.712,8.55-1.092,12.822c-0.572,6.485-1.184,12.967-1.75,19.451
		c-0.576,6.594-1.119,13.188-1.67,19.785c-0.051,0.604-0.118,1.133-0.847,1.332c-6.413,1.742-12.748,3.775-19.222,5.295
		c-1.922,0.041-1.923,0.041-1.923-2.064c-0.002-2.014,0.091-4.033-0.034-6.039c-0.077-1.227,0.194-2.109,1.278-2.688
		c3.119-0.865,6.224-1.787,9.365-2.563c1.097-0.271,1.335-0.801,1.417-1.848C-129.908-84.395-129.471-88.434-129.074-92.477z"/>
</g>
<rect x="200.5" y="-119.531" style="fill-rule:evenodd;clip-rule:evenodd;fill:#FFFFFF;" width="100" height="99.998"/>
<g>
	<path style="fill-rule:evenodd;clip-rule:evenodd;fill:#E3A22A;" d="M-138.057,84.286c13.645,0,27.29,0.013,40.936-0.022
		c1.16-0.002,1.416,0.298,1.309,1.466c-0.67,7.37-1.21,14.751-1.87,22.121c-0.869,9.683-1.828,19.356-2.712,29.037
		c-0.521,5.716-0.961,11.44-1.461,17.158c-0.465,5.292-0.984,10.577-1.422,15.871c-0.072,0.894-0.454,1.191-1.252,1.408
		c-7.344,2.007-14.676,4.051-22.012,6.085c-3.559,0.988-7.119,1.963-10.668,2.983c-1.406,0.403-2.631-0.279-3.881-0.599
		c-4.311-1.101-8.582-2.346-12.867-3.539c-5.876-1.635-11.747-3.293-17.635-4.886c-0.919-0.247-1.306-0.589-1.388-1.6
		c-0.444-5.482-0.989-10.956-1.483-16.435c-0.341-3.781-0.652-7.566-0.984-11.35c-0.389-4.439-0.796-8.879-1.179-13.318
		c-0.522-6.047-0.952-12.102-1.564-18.139c-0.633-6.229-1.127-12.467-1.696-18.701c-0.189-2.076-0.356-4.154-0.569-6.228
		c-0.125-1.21,0.339-1.33,1.321-1.328C-165.442,84.292-151.749,84.285-138.057,84.286z"/>
	<path style="fill-rule:evenodd;clip-rule:evenodd;fill:#EFBF25;" d="M-138.404,95.348c0.543-0.934,0.241-1.955,0.262-2.934
		c0.02-0.906,0.348-1.275,1.269-1.275c10.69,0.016,21.382,0.016,32.073,0c0.958-0.001,1.275,0.453,1.201,1.322
		c-0.305,3.574-0.595,7.148-0.92,10.721c-0.24,2.627-0.543,5.25-0.786,7.879c-0.383,4.133-0.839,8.262-1.07,12.403
		c-0.142,2.503-0.454,4.984-0.634,7.479c-0.256,3.576-0.504,7.148-1.087,10.691c-0.253,1.538-0.196,3.116-0.28,4.666
		c-0.211,3.965-0.874,7.885-0.97,11.861c-0.05,2.064-0.574,4.111-0.54,6.2c0.013,0.811-0.535,1.136-1.241,1.326
		c-2.55,0.685-5.097,1.377-7.639,2.085c-5.994,1.671-11.995,3.323-17.971,5.056c-1.17,0.338-1.414,0.016-1.399-1.078
		c0.041-3.182,0.014-6.365,0.012-9.55c0.326-0.419,0.811-0.596,1.264-0.82c1.095-0.104,2.09-0.664,3.199-0.705
		c0.617-0.02,1.271,0.111,1.748-0.453c1.781-1.027,3.84-1.158,5.74-1.799c0.698-0.01,1.375-0.094,1.963-0.521
		c1.963-0.74,4.014-1.176,6.018-1.771c0.855-0.255,1.236-0.674,1.352-1.56c0.527-4.052,0.793-8.126,1.171-12.19
		c0.263-2.833,0.382-5.686,0.812-8.501c0.217-1.419,0.312-2.835,0.266-4.261c-0.041-1.251,0.225-2.452,0.447-3.669
		c0.331-1.802,0.055-2.123-1.766-2.126c-6.607-0.012-13.216,0-19.823-0.009c-0.755-0.001-1.524,0.087-2.255-0.222
		c-0.164-0.092-0.285-0.221-0.367-0.39c-0.275-0.682-0.213-1.4-0.215-2.108c-0.008-3.842-0.006-7.684-0.003-11.525
		c0.001-2.938,0.003-2.938,2.889-3.229c1.305,0.118,2.613,0.12,3.923,0.085c1.809-0.121,3.6,0.04,5.392,0.284
		c1.183,0.16,1.843,0.781,1.784,1.973c-0.13,2.628,0.729,5.172,0.614,7.795c-0.037,0.857,0.317,1.328,1.243,1.326
		c2.469-0.002,4.938,0.036,7.405-0.017c1.187-0.026,1.538-0.423,1.226-1.978c-0.568-2.809-0.561-5.662-0.816-8.489
		c-0.295-3.253-0.78-6.495-0.83-9.771c-0.021-1.51-0.182-1.67-1.775-1.676c-6.123-0.018-12.246-0.004-18.369-0.011
		c-0.709-0.001-1.428,0.068-2.119-0.166C-138.182,95.625-138.311,95.508-138.404,95.348z"/>
	<path style="fill-rule:evenodd;clip-rule:evenodd;fill:#EBECED;" d="M-138.404,95.348c0.096,0.037,0.191,0.074,0.287,0.112
		c0.502,0.55,0.419,1.237,0.424,1.893c0.018,2.324,0.029,4.649-0.003,6.974c-0.015,1.075,0.373,1.575,1.493,1.515
		c1.137-0.062,2.279-0.019,3.41,0.127c0.453,0.058,1.141-0.044,0.946,0.813c-1.265-0.02-2.527-0.039-3.791-0.059
		c-2.276-0.176-4.515,0.31-6.776,0.415c-1.418,0.066-2.838,0.106-4.256,0.147c-0.679,0.02-1.188,0.176-1.271,0.998
		c-0.436,4.332-0.986,8.653-1.15,13.008c-0.062,1.6,0.023,1.646,1.678,1.655c2.559,0.014,5.117-0.005,7.676,0.009
		c0.568,0.003,1.145,0,1.628,0.379l-0.024,0.103c0.415,0.407,0.436,0.936,0.42,1.461c-0.069,2.234,0.066,4.467,0.044,6.702
		c-0.017,1.736,0.148,1.884,1.856,1.897c2.996,0.022,5.992-0.016,8.987,0.022c0.671,0.008,1.467-0.188,1.88,0.646
		c-0.105,0.156-0.247,0.27-0.421,0.343c-2.484,0.378-4.983,0.101-7.474,0.171c-1.225,0.035-2.451,0.02-3.676-0.002
		c-0.566-0.01-1.139-0.02-1.598-0.435c-7.218-0.021-14.436-0.044-21.652-0.063c-1.834-0.005-1.921-0.114-1.669-1.923
		c0.527-3.804,0.736-7.638,1.081-11.459c0.498-5.514,1.173-11.014,1.562-16.535c0.173-2.458,0.696-4.887,0.653-7.345
		c-0.024-1.343,0.493-1.546,1.646-1.536c5.508,0.045,11.018,0.021,16.528,0.019C-139.446,95.4-138.925,95.367-138.404,95.348z"/>
	<path style="fill-rule:evenodd;clip-rule:evenodd;fill:#EBECED;" d="M-136.914,161.668c-0.26,0.502-0.781,0.414-1.211,0.533
		c-3.115-0.924-6.238-1.842-9.374-2.665c-3.75-0.983-7.442-2.175-11.223-3.038c-0.82-0.187-1.298-0.457-1.435-1.429
		c-0.326-2.3-0.351-4.623-0.642-6.929c-0.297-2.346-0.343-4.732-0.683-7.082c-0.176-1.221,0.089-1.799,1.53-1.729
		c2.704,0.133,5.418,0.056,8.127,0.065c0.637,0.256,0.803,0.888,1.118,1.399c0.193,2.078,0.386,4.156,0.583,6.232
		c0.035,0.365-0.008,0.757,0.506,0.89c3.698,0.96,7.336,2.154,11.086,2.919c0.13,0.027,0.277-0.039,0.418-0.063
		c0.195-0.164,0.397-0.153,0.604-0.023c-0.811,3.137,0.133,6.341-0.359,9.492C-137.988,161.004-137.364,161.281-136.914,161.668z"/>
	<path style="fill-rule:evenodd;clip-rule:evenodd;fill:#EFBF25;" d="M-137.551,150.848c-0.188-0.024-0.375-0.049-0.563-0.074
		c-0.001-5.51-0.002-11.02-0.002-16.53c4.256-0.056,8.514-0.142,12.77,0.045c0.5,1.011-0.013,2.082,0.193,3.11
		c0.191,3.042-0.781,5.993-0.678,9.035c0.037,1.099-0.6,1.813-1.745,2.095c-2.897,0.711-5.729,1.661-8.614,2.419
		C-136.658,151.07-137.117,151.158-137.551,150.848z"/>
	<path style="fill-rule:evenodd;clip-rule:evenodd;fill:#F8E5B9;" d="M-150.706,140.795c-0.642-0.252-0.802-0.887-1.118-1.399
		C-150.553,139.145-150.622,139.965-150.706,140.795z"/>
	<path style="fill-rule:evenodd;clip-rule:evenodd;fill:#FDFEFD;" d="M-137.551,150.848c3.303-0.91,6.594-1.869,9.917-2.702
		c1.034-0.259,1.437-0.832,1.411-1.755c-0.088-3.031,0.702-5.99,0.696-9.012c0.366-1.022,0.066-2.155,0.524-3.163
		c-0.426-0.452-0.981-0.271-1.482-0.273c-3.369-0.016-6.74-0.048-10.109,0.014c-1.193,0.021-1.574-0.403-1.551-1.573
		c0.059-2.98,0.014-5.964,0.01-8.946c7.883-0.02,15.766-0.028,23.646-0.071c0.943-0.006,0.951,0.483,0.887,1.175
		c-0.283,3.062-0.468,6.132-0.837,9.183c-0.33,2.728-0.521,5.472-0.749,8.201c-0.375,4.483-0.842,8.957-1.219,13.439
		c-0.039,0.476-0.145,0.86-0.627,0.986c-2.449,0.637-4.902,1.256-7.355,1.881c-0.52,0.393-1.221,0.174-1.754,0.521
		c-1.851,0.736-3.887,0.867-5.693,1.749c-0.512,0.469-1.269,0.065-1.789,0.505c-1.15-0.05-2.117,0.814-3.289,0.663
		c-1.113,0.107-1.581-0.416-1.404-1.623c0.298-2.027,0.221-4.037,0.021-6.076C-138.4,152.928-138.561,151.701-137.551,150.848z"/>
	<path style="fill-rule:evenodd;clip-rule:evenodd;fill:#FFFFFF;" d="M-131.847,106.781c-0.052-0.321-0.229-0.584-0.561-0.453
		c-0.763,0.303-1.478-0.092-2.222-0.086c-3.492,0.029-3.493,0-3.492-3.559c0-2.408,0.002-4.816,0.004-7.224
		c7.265-0.015,14.528-0.022,21.792-0.056c0.743-0.004,0.975,0.262,0.989,0.99c0.105,5.504,1.035,10.945,1.271,16.441
		c0.064,1.505,0.514,2.98,0.485,4.513c-0.013,0.683-0.236,0.904-0.907,0.897c-2.991-0.027-5.982-0.029-8.974-0.012
		c-0.655,0.005-0.966-0.203-0.938-0.892c0.115-2.903-0.716-5.741-0.644-8.64c0.028-1.131-0.351-1.617-1.553-1.621
		C-128.346,107.078-130.096,106.891-131.847,106.781z"/>
	<path style="fill-rule:evenodd;clip-rule:evenodd;fill:#E3A22A;" d="M-138.11,123.334c-3.563,0.015-7.126,0.023-10.688,0.049
		c-0.686,0.005-0.898-0.105-0.855-0.952c0.248-4.928,0.918-9.815,1.263-14.732c0.032-0.453,0.069-0.88,0.676-0.866
		c4.028,0.086,8.048-0.57,12.079-0.109c-2.486,0.316-2.488,0.316-2.486,2.988C-138.119,114.252-138.115,118.793-138.11,123.334z"/>
	<path style="fill-rule:evenodd;clip-rule:evenodd;fill:#E8CE61;" d="M-133.625,161.005c0.417-0.806,1.157-0.466,1.789-0.505
		C-132.2,161.489-133.014,160.888-133.625,161.005z"/>
	<path style="fill-rule:evenodd;clip-rule:evenodd;fill:#F5E3B2;" d="M-126.143,158.751c0.473-0.55,1.097-0.591,1.754-0.521
		C-124.768,159.098-125.543,158.631-126.143,158.751z"/>
	<path style="fill-rule:evenodd;clip-rule:evenodd;fill:#F1E7AA;" d="M-125.002,134.216c0.006,1.085,0.106,2.185-0.524,3.163
		c-0.126-1.041-0.05-2.07,0.181-3.092C-125.23,134.264-125.116,134.24-125.002,134.216z"/>
</g>
<g>
	<path style="fill-rule:evenodd;clip-rule:evenodd;fill:#4DC1EA;" d="M76.916,91.712c-0.423,0.022-0.845,0.064-1.267,0.064
		c-16.053,0.003-32.106,0.003-48.16,0c-0.422,0-0.844-0.042-1.267-0.064c-4.473-0.168-8.949-0.066-13.423-0.048
		c-1.207,0.005-2.377-0.323-3.62-0.125c-0.749,0.121-1.591-0.337-1.46-1.454c0.033-0.279,0.004-0.564,0.004-0.848
		c0-26.063,0-52.125,0-78.187c0-2.216,0.081-2.296,2.314-2.296c26.863,0,53.728,0,80.59,0c1.674,0,1.675,0.001,1.675,1.661
		c0.002,26.062,0.002,52.124-0.001,78.187c0,0.517-0.111,1.059-0.051,1.544c0.17,1.363-0.444,1.529-1.634,1.522
		C86.052,91.641,81.482,91.542,76.916,91.712z"/>
	<path style="fill-rule:evenodd;clip-rule:evenodd;fill:#53BFE7;" d="M76.916,91.712c0.456-0.374,0.997-0.205,1.499-0.207
		c3.771-0.015,7.542-0.009,11.313-0.009c2.259,0,2.261,0,2.431-2.205c0.021-0.28,0.005-0.564,0.005-0.848
		c0-25.927-0.013-51.854,0.032-77.781c0.002-1.428-0.347-1.803-1.792-1.801C63.629,8.908,36.853,8.896,10.078,8.896
		c-1.968,0-2.212,0.24-2.212,2.182c-0.001,26.116-0.001,52.232,0,78.347c0,1.675,0.487,2.02,2.173,1.592
		c0.864-0.22,1.474,0.554,2.383,0.528c4.098-0.113,8.201-0.056,12.302-0.041c0.502,0.002,1.043-0.168,1.499,0.207
		c-5.89,0.027-11.78,0.047-17.67,0.092c-0.724,0.007-1.051-0.238-0.984-0.98c0.034-0.374,0.003-0.753,0.003-1.131
		c0-26.444,0.013-52.889-0.035-79.333C7.535,8.915,7.906,8.57,9.331,8.572C36.435,8.617,63.54,8.606,90.644,8.607
		c1.812,0,1.818,0.001,1.818,1.86c0.002,26.491,0.002,52.983,0,79.474c0,1.842-0.008,1.851-1.836,1.842
		C86.056,91.764,81.486,91.736,76.916,91.712z"/>
	<path style="fill-rule:evenodd;clip-rule:evenodd;fill:#08212D;" d="M88.732,12.368c0.005,24.847,0,49.694,0.044,74.542
		c0.002,1.291-0.683,1.169-1.501,1.169c-19.755-0.005-39.511-0.004-59.266-0.004c-5.14,0-10.279-0.014-15.417,0.019
		c-0.901,0.007-1.332-0.123-1.331-1.202c0.031-24.658,0.025-49.317,0.027-73.975c0-0.189,0.017-0.377,0.026-0.565
		c0.393-0.494,0.951-0.338,1.448-0.339c24.842-0.008,49.684-0.008,74.525,0C87.788,12.011,88.345,11.875,88.732,12.368z"/>
	<path style="fill-rule:evenodd;clip-rule:evenodd;fill:#50BFEE;" d="M8.428,50.067c0-12.776,0-25.551,0-38.327
		c0-0.283,0.011-0.566-0.002-0.849c-0.029-0.594-0.001-1.306,0.725-1.283c0.696,0.022,0.688,0.766,0.687,1.326
		c-0.003,1.118,0.139,2.248-0.67,3.233C8.944,14.441,9,14.978,9,15.393C8.993,38.586,8.994,61.78,8.99,84.976
		c0,0.617,0.114,1.137,0.458,1.705c0.638,1.052,0.438,2.281,0.314,3.45c-0.032,0.297-0.164,0.714-0.584,0.677
		c-0.386-0.033-0.717-0.254-0.736-0.717c-0.015-0.378-0.014-0.754-0.014-1.131C8.428,75.995,8.428,63.032,8.428,50.067z"/>
	<path style="fill-rule:evenodd;clip-rule:evenodd;fill:#53BFE7;" d="M14.934,10.023c24.168,0,48.337,0,72.504,0
		c0.001,0.139,0.001,0.279,0.003,0.417c-25.201,0.711-50.428-0.687-75.619,0.715c-0.188,0.17-0.376,0.149-0.563-0.002
		c-0.163-0.39-0.607-0.638-0.568-1.13C12.105,9.734,13.519,9.558,14.934,10.023z"/>
	<path style="fill-rule:evenodd;clip-rule:evenodd;fill:#53BFE7;" d="M88.732,12.368c-0.659-0.017-1.317-0.047-1.976-0.048
		c-24.725-0.004-49.448-0.006-74.171-0.006c-0.424,0-0.847,0.024-1.271,0.037l-0.076-0.084c-0.036-0.428,0.121-0.651,0.583-0.547
		c25.247,0,50.495-0.003,75.741,0.04C87.901,11.76,88.946,11.063,88.732,12.368z"/>
	<path style="fill-rule:evenodd;clip-rule:evenodd;fill:#50BFEE;" d="M14.934,10.023c-1.415,0-2.829,0-4.243,0.001
		c0.024-0.088,0.018-0.22,0.075-0.259C11.539,9.236,14.202,9.409,14.934,10.023z"/>
	<path style="fill-rule:evenodd;clip-rule:evenodd;fill:#50BFEE;" d="M11.822,11.72c-0.194,0.182-0.389,0.365-0.583,0.547
		c-0.309-0.02-0.511-0.15-0.529-0.49c-0.021-0.391,0.166-0.591,0.548-0.623c0.188,0,0.375,0.001,0.563,0.002
		C11.822,11.344,11.822,11.532,11.822,11.72z"/>
	<path style="fill-rule:evenodd;clip-rule:evenodd;fill:#4FC0ED;" d="M29.695,49.063c0-5.844,0.022-11.689-0.021-17.534
		c-0.008-1.055,0.205-1.49,1.382-1.438c4.233,0.187,8.486-0.281,12.707,0.265c4.913,0.636,7.791,3.516,8.478,8.411
		c0.398,2.83,0.254,5.636-0.601,8.384c-1.297,4.171-4.714,6.833-9.097,7.017c-1.741,0.072-3.488,0.084-5.23,0.029
		c-0.934-0.028-1.198,0.282-1.186,1.205c0.049,3.535,0.014,7.071,0.017,10.605c0.002,2.377,0.087,1.982-1.922,1.99
		c-1.038,0.004-2.078-0.051-3.11,0.024c-1.09,0.079-1.461-0.281-1.451-1.425c0.056-5.844,0.026-11.688,0.026-17.534
		C29.691,49.063,29.693,49.063,29.695,49.063z"/>
	<path style="fill-rule:evenodd;clip-rule:evenodd;fill:#4EC0EC;" d="M72.97,43.516c-0.003,2.458-0.01,2.481-2.359,1.785
		c-1.793-0.53-3.618-0.623-5.455-0.476c-1.71,0.137-2.705,1.104-2.834,2.608c-0.129,1.51,0.561,2.379,2.309,2.871
		c0.905,0.255,1.813,0.517,2.734,0.702c6.102,1.225,7.447,4.697,6.875,10.057c-0.425,3.967-2.779,6.263-6.699,6.946
		c-3.234,0.566-6.376,0.15-9.449-0.937c-1.004-0.355-1.744-0.842-1.529-2.134c0.184-1.1-0.477-2.623,0.253-3.244
		c0.723-0.617,1.907,0.578,2.956,0.801c2.098,0.444,4.188,0.66,6.298,0.203c1.386-0.299,2.253-1.107,2.321-2.611
		c0.068-1.49-0.677-2.41-2.04-2.842c-1.073-0.34-2.171-0.604-3.261-0.893c-5.092-1.346-7.117-4.321-6.514-9.582
		c0.454-3.966,2.903-6.452,6.897-7.076c2.27-0.354,4.505-0.23,6.724,0.309C72.976,40.681,72.975,40.689,72.97,43.516z"/>
	<path style="fill-rule:evenodd;clip-rule:evenodd;fill:#08212D;" d="M36.149,42.168c-0.001-1.693,0.032-3.388-0.017-5.08
		c-0.022-0.775,0.187-1.116,1.014-1.051c1.819,0.141,3.655-0.191,5.47,0.244c1.657,0.397,2.541,1.465,2.876,3.071
		c0.351,1.677,0.378,3.354,0.033,5.039c-0.548,2.682-2.034,3.989-4.763,4.091c-1.221,0.046-2.447-0.028-3.668,0.023
		c-0.751,0.032-0.973-0.247-0.957-0.974C36.179,45.744,36.151,43.956,36.149,42.168z"/>
</g>
</svg>
