<?xml version="1.0" encoding="iso-8859-1"?>
<!-- Generator: Adobe Illustrator 16.0.0, SVG Export Plug-In . SVG Version: 6.00 Build 0)  -->
<!DOCTYPE svg PUBLIC "-//W3C//DTD SVG 1.1//EN" "http://www.w3.org/Graphics/SVG/1.1/DTD/svg11.dtd">
<svg version="1.1" id="Layer_1" xmlns="http://www.w3.org/2000/svg" xmlns:xlink="http://www.w3.org/1999/xlink" x="0px" y="0px"
	 width="100px" height="100px" viewBox="0 0 100 100" style="enable-background:new 0 0 100 100;" xml:space="preserve">
<g>
	<path style="fill-rule:evenodd;clip-rule:evenodd;fill:#E45125;" d="M-141.421-28.182c13.421,0,26.844,0,40.264-0.001
		c2.938,0,2.409,0.012,2.206,2.421c-0.731,8.659-1.554,17.31-2.319,25.965c-1.149,12.985-2.269,25.972-3.428,38.957
		c-0.56,6.279-1.198,12.555-1.743,18.836c-0.079,0.914-0.439,1.273-1.271,1.502c-9.092,2.486-18.172,5.008-27.257,7.518
		c-0.866,0.238-1.78,0.357-2.596,0.713c-2.725,1.188-5.33,0.854-8.132,0.033c-9.803-2.865-19.667-5.529-29.521-8.217
		c-1.064-0.291-1.355-0.764-1.448-1.838c-0.971-11.189-2.035-22.373-3.034-33.563c-0.735-8.231-1.388-16.47-2.122-24.702
		c-0.762-8.549-1.591-17.091-2.363-25.638c-0.179-1.984-0.125-1.985,1.862-1.985C-168.688-28.18-155.054-28.181-141.421-28.182z"/>
	<path style="fill-rule:evenodd;clip-rule:evenodd;fill:#F06726;" d="M-168.306-10.302c0.499-0.608,1.188-0.333,1.786-0.334
		c7.741-0.02,15.482-0.052,23.222,0.022c1.448,0.013,1.808-0.439,1.747-1.807c-0.105-2.381,0.01-4.772-0.047-7.156
		c-0.027-1.161,0.389-1.596,1.568-1.593c10.55,0.028,21.101,0.01,31.651,0.023c1.585,0.002,1.769,0.466,1.635,2.078
		c-0.191,2.311-0.623,4.616-0.7,6.904c-0.204,6.014-0.956,11.979-1.455,17.959c-0.402,4.812-0.775,9.644-1.4,14.449
		c-0.391,3.013-0.352,6.099-0.726,9.134c-0.783,6.371-0.993,12.801-1.87,19.166c-0.144,1.041-0.003,2.117-0.043,3.178
		c-0.046,1.227-0.531,1.982-1.879,2.342c-5.073,1.352-10.104,2.855-15.163,4.27c-3.191,0.889-6.396,1.74-9.603,2.572
		c-1.859,0.484-1.994,0.357-1.998-1.555c-0.003-2.439-0.037-4.879,0.018-7.314c0.021-0.869-0.165-1.521-0.957-1.934
		c0.578-0.512,1.374-0.297,2.012-0.613c6.343-1.713,12.667-3.496,19.019-5.178c1.179-0.313,1.66-0.967,1.718-2.125
		c0.358-7.189,1.208-14.338,1.873-21.504c0.107-1.16-0.045-2.336,0.208-3.488c0.248-1.087,0.315-2.201,0.451-3.3
		c0.229-1.851-0.064-2.121-1.95-2.124c-6.47-0.008-12.941,0.011-19.412-0.017c-1.035-0.004-2.131,0.279-3.092-0.397
		c-0.297-0.402-0.368-0.871-0.376-1.347c-0.047-2.733-0.047-5.467,0-8.201c0.009-0.475,0.079-0.945,0.374-1.346
		c0.685-0.563,1.51-0.408,2.288-0.41c6.992-0.014,13.984-0.004,20.975-0.013c0.68,0,1.388,0.137,1.997-0.305
		c0.25-0.219,0.43-0.5,0.427-0.825c-0.03-2.708,0.572-5.368,0.604-8.069c-0.428-1.014-1.339-0.702-2.073-0.706
		c-11.354-0.049-22.707,0.018-34.063,0.049c-4.775,0.013-9.551,0.01-14.326-0.005C-166.703-9.825-167.582-9.691-168.306-10.302z"/>
	<path style="fill-rule:evenodd;clip-rule:evenodd;fill:#EBEBEB;" d="M-141.565,11.21c7.566,0.025,15.134,0.053,22.7,0.073
		c2.234,0.006,2.289,0,2.083,2.252c-0.119,1.304-0.127,2.637-0.553,3.903c-0.816-0.842-0.501-1.885-0.477-2.86
		c0.054-2.199-0.122-2.433-2.237-2.437c-6.342-0.013-12.685-0.012-19.027,0c-1.871,0.004-1.982,0.122-2,1.969
		c-0.021,1.903,0.01,3.806-0.014,5.709c-0.008,0.732,0.064,1.493-0.459,2.121c-0.458,0.333-0.994,0.331-1.52,0.326
		c-7.013-0.06-14.027,0.163-21.04-0.12c-0.704-0.029-1.382-0.051-1.806-0.737c-0.26-0.617-0.196-1.217,0.106-1.803
		c-0.579-6.857-1.192-13.712-1.72-20.573c-0.239-3.113-0.823-6.198-0.778-9.334c17.39-0.025,34.778-0.044,52.169-0.092
		c1.01-0.002,1.555,0.207,1.249,1.331c-2.119-0.593-4.29-0.439-6.45-0.442c-5.879-0.004-11.759-0.01-17.637,0.004
		c-1.968,0.005-2.079,0.128-2.098,2.057c-0.016,1.642-0.015,3.284,0,4.925c0.018,2.026,0.152,2.179,2.164,2.184
		c6.46,0.016,12.923,0.004,19.385,0.006c0.688,0.001,1.378-0.017,2.064,0.015c0.58,0.026,1.177,0.014,1.63,0.481
		c-0.775,0.493-1.641,0.253-2.458,0.255c-7.184,0.024-14.367,0.009-21.551,0.012c-0.579,0-1.158,0.045-1.737,0.069
		c-0.671,0.569-1.487,0.479-2.272,0.482c-3.384,0.014-6.77-0.01-10.154,0.012c-1.906,0.013-2.204,0.291-1.976,2.115
		c0.25,1.996,0.341,4.002,0.521,6.001c0.119,1.316,0.696,1.718,1.907,1.712c3.278-0.016,6.558-0.014,9.838,0
		C-142.979,10.83-142.223,10.761-141.565,11.21z"/>
	<path style="fill-rule:evenodd;clip-rule:evenodd;fill:#EBEBEB;" d="M-140.598,49.872c-0.584,0.559-1.275,0.199-1.922,0.23
		c-6.466-1.791-12.922-3.621-19.407-5.344c-1.159-0.307-1.721-0.76-1.802-1.969c-0.176-2.641-0.278-5.291-0.746-7.904
		c-0.699-1.531-0.315-3.182-0.436-4.766c-0.063-0.83-0.719-1.656-0.171-2.525l-0.04,0.016c0.76-0.5,1.62-0.346,2.45-0.369
		c2.319-0.068,4.642,0.111,6.961-0.113c1.044-0.1,1.663,0.398,1.895,1.469c0.359,1.666,0.362,3.361,0.411,5.039
		c0.036,1.248,0.203,2.17,1.619,2.393c0.254,0.039,0.443,0.277,0.643,0.449l0.005,0.002c0.81,0.355,1.795,0.018,2.536,0.643h0.008
		c0.771,0.477,1.775,0.082,2.516,0.674l0.001-0.014c1.057,0.471,2.328,0.061,3.322,0.799c0.525,0.545,1.403-0.109,1.896,0.553
		c-0.467,2.969-0.174,5.959-0.241,8.939C-141.113,48.728-140.798,49.282-140.598,49.872z"/>
	<path style="fill-rule:evenodd;clip-rule:evenodd;fill:#F06726;" d="M-140.949,39.065c-0.645-0.105-1.359,0.182-1.93-0.35
		c0.206-0.203,0.427-0.195,0.654-0.039c0.45,0.008,0.723-0.234,0.721-0.66c-0.018-4.762-0.051-9.521-0.08-14.28
		c-0.639-0.949-1.579-1.102-2.64-1.097c-4.602,0.021-9.205-0.033-13.806,0.026c-2.485,0.033-4.942-0.189-7.4-0.476
		c-0.115-0.015-0.23-0.03-0.346-0.046c-0.279-0.341-0.287-0.67,0.044-0.983c0.242,0.522,0.598,0.776,1.227,0.773
		c7.638-0.044,15.276-0.06,22.914-0.083c0.457-0.444,1.037-0.496,1.627-0.499c3.018-0.016,6.039-0.056,9.057,0.012
		c2.407,0.055,2.995,0.756,2.814,3.143c-0.256,3.377-0.703,6.738-0.932,10.117c-0.069,1.021-0.544,1.736-1.502,2.018
		c-3.202,0.939-6.434,1.77-9.669,2.582C-140.457,39.29-140.719,39.226-140.949,39.065z"/>
	<path style="fill-rule:evenodd;clip-rule:evenodd;fill:#E54E27;" d="M-165.429,22.19c7.529-0.012,15.06,0.005,22.589-0.06
		c1.322-0.011,1.322,0.693,1.256,1.605c-5.5,0-11.001-0.05-16.5,0.025c-1.918,0.025-3.698-0.281-5.383-1.173
		C-164.083,22.263-164.861,22.742-165.429,22.19z"/>
	<path style="fill-rule:evenodd;clip-rule:evenodd;fill:#E54E27;" d="M-151.142,36.478c-2.422-0.25-2.398-0.254-2.577-2.604
		c-0.137-1.793-0.376-3.578-0.507-5.373c-0.053-0.721-0.288-1.049-1.045-1.027c-3.282,0.082-6.569-0.143-9.85,0.137
		c0.437-0.688,1.128-0.695,1.827-0.693c1.538,0.004,3.097-0.154,4.608,0.047c1.448,0.193,2.608-0.658,3.969-0.703
		c1.214-0.039,1.748,0.354,1.693,1.635c-0.077,1.801,0.083,3.613-0.05,5.408c-0.114,1.547,0.418,2.156,1.94,1.893h0.001
		C-151.135,35.624-151.139,36.052-151.142,36.478z"/>
	<path style="fill-rule:evenodd;clip-rule:evenodd;fill:#E54E27;" d="M-165.484,25.103c1.616,0.242,3.266-0.639,4.934,0.102
		C-161.875,26.722-163.571,26.712-165.484,25.103z"/>
	<path style="fill-rule:evenodd;clip-rule:evenodd;fill:#E54E27;" d="M-165.081,27.595c0.319,2.42,0.622,4.842,0.607,7.289
		c-0.836-0.359-0.654-1.107-0.663-1.773c-0.013-1.055,0.003-2.107-0.009-3.162c-0.004-0.408,0.096-0.908-0.447-1.059
		c-0.509-0.139-0.964-0.309-0.728-0.936C-166.093,27.351-165.525,27.618-165.081,27.595z"/>
	<path style="fill-rule:evenodd;clip-rule:evenodd;fill:#E54E27;" d="M-151.603,33.585c0-1.09,0-2.182,0-3.271
		C-151.004,31.438-151.063,32.536-151.603,33.585z"/>
	<path style="fill-rule:evenodd;clip-rule:evenodd;fill:#E54E27;" d="M-142.225,38.677c-0.218,0.012-0.436,0.025-0.654,0.039
		c-1.076-0.273-2.246-0.229-3.196-0.934C-144.736,37.847-143.246,37.251-142.225,38.677z"/>
	<path style="fill-rule:evenodd;clip-rule:evenodd;fill:#E54E27;" d="M-145.922,36.108c0.502-0.418,1.008-0.227,1.465-0.311
		c0.381-0.068,1.016-0.662,1.082,0.162c0.045,0.547-0.689,0.527-1.153,0.5C-144.966,36.433-145.474,36.659-145.922,36.108z"/>
	<path style="fill-rule:evenodd;clip-rule:evenodd;fill:#E54E27;" d="M-165.73,21.161c-0.015,0.327-0.029,0.655-0.044,0.983
		c-0.321,0.313-0.612,0.208-0.6-0.188c0.025-0.812-0.416-1.764,0.567-2.35C-165.781,20.125-165.756,20.643-165.73,21.161z"/>
	<path style="fill-rule:evenodd;clip-rule:evenodd;fill:#E54E27;" d="M-155.843,24.821c0.979-0.563,1.476-0.484,2.211-0.193
		C-154.358,25.161-154.869,24.999-155.843,24.821z"/>
	<path style="fill-rule:evenodd;clip-rule:evenodd;fill:#E54E27;" d="M-151.45,28.921c-0.421-0.811-0.35-1.307-0.081-2.086
		C-151.007,27.606-151.065,28.11-151.45,28.921z"/>
	<path style="fill-rule:evenodd;clip-rule:evenodd;fill:#E54E27;" d="M-148.601,37.122c-0.898-0.008-1.74-0.236-2.536-0.643
		C-150.305,36.745-149.168,35.808-148.601,37.122z"/>
	<path style="fill-rule:evenodd;clip-rule:evenodd;fill:#E54E27;" d="M-146.077,37.796c-0.885-0.053-1.76-0.139-2.516-0.674
		C-147.766,37.39-146.652,36.587-146.077,37.796z"/>
	<path style="fill-rule:evenodd;clip-rule:evenodd;fill:#E54E27;" d="M-151.133,35.196c0.424-1.033,1.024-0.664,1.793-0.271
		C-150.002,35.374-150.588,35.116-151.133,35.196L-151.133,35.196z"/>
	<path style="fill-rule:evenodd;clip-rule:evenodd;fill:#FFFFFF;" d="M-140.949,39.065c3.259-0.891,6.51-1.801,9.776-2.656
		c1.094-0.287,1.649-0.756,1.726-2.021c0.209-3.477,0.602-6.947,0.921-10.418c0.171-1.849,0.059-1.998-1.806-2.021
		c-3.753-0.047-7.504-0.066-11.258-0.097c0.004-2.909,0.06-5.818-0.018-8.725c-0.031-1.207,0.375-1.521,1.543-1.512
		c6.874,0.049,13.747,0.024,20.622,0.025c2.05,0,2.472,0.412,2.195,2.489c-0.148,1.112-0.147,2.205-0.088,3.311
		c-0.354,6.875-1.165,13.707-1.732,20.562c-0.136,1.637-0.253,3.275-0.318,4.914c-0.039,0.982-0.437,1.514-1.421,1.775
		c-6.136,1.625-12.259,3.301-18.389,4.947c-0.457,0.121-0.934,0.158-1.402,0.234c-0.588-0.027-0.996-0.186-0.988-0.916
		c0.021-2.902,0.023-5.807-0.009-8.707C-141.602,39.683-141.281,39.394-140.949,39.065z"/>
	<path style="fill-rule:evenodd;clip-rule:evenodd;fill:#FFFFFF;" d="M-115.829,0.167c-8.011-0.003-16.021-0.042-24.03,0.027
		c-1.44,0.013-1.815-0.423-1.752-1.799c0.109-2.33,0.086-4.668,0.008-7c-0.039-1.151,0.396-1.425,1.473-1.42
		c7.744,0.037,15.489,0.044,23.233-0.012c0.931-0.007,1.452,0.423,2.01,0.975C-115.255-5.992-115.24-2.881-115.829,0.167z"/>
	<path style="fill-rule:evenodd;clip-rule:evenodd;fill:#E45125;" d="M-141.565,11.21c-4.393,0.032-8.786,0.067-13.18,0.092
		c-0.619,0.004-1.148-0.102-1.2-0.922c-0.185-2.945-0.388-5.889-0.622-8.832c-0.064-0.803,0.152-1.167,1.018-1.156
		c4.658,0.056,9.316,0.077,13.974,0.111C-141.572,4.072-141.568,7.641-141.565,11.21z"/>
</g>
<g>
	<path style="fill-rule:evenodd;clip-rule:evenodd;fill:#1174B5;" d="M-142.19-142.264c13.493-0.001,26.986,0.021,40.479-0.034
		c1.458-0.006,1.853,0.343,1.707,1.845c-0.863,9.077-1.644,18.163-2.434,27.247c-0.792,9.083-1.551,18.169-2.35,27.253
		c-0.871,9.928-1.787,19.85-2.64,29.779c-0.09,1.031-0.527,1.406-1.47,1.666c-10.772,2.982-21.53,6.01-32.289,9.033
		c-0.731,0.205-1.428,0.193-2.158-0.012c-10.807-3.049-21.611-6.094-32.431-9.096c-0.872-0.244-1.124-0.627-1.199-1.506
		c-1.652-19.174-3.334-38.343-5.024-57.513c-0.783-8.872-1.593-17.741-2.396-26.61c-0.186-2.055-0.199-2.052,1.885-2.052
		C-169.071-142.263-155.63-142.263-142.19-142.264z"/>
	<path style="fill-rule:evenodd;clip-rule:evenodd;fill:#31A9DC;" d="M-168.679-125.01c0.412-0.634,1.052-0.351,1.586-0.353
		c7.562-0.02,15.123-0.014,22.686-0.014c2.15,0,2.152,0,2.156-2.097c0.002-2.123,0.039-4.248-0.016-6.369
		c-0.027-0.991,0.217-1.408,1.303-1.404c10.713,0.034,21.425,0.03,32.139,0c0.992-0.002,1.318,0.367,1.223,1.309
		c-0.399,3.878-0.794,7.76-1.168,11.642c-0.256,2.68-0.475,5.362-0.712,8.042c-0.407,4.625-0.827,9.25-1.22,13.877
		c-0.348,4.101-0.636,8.208-1.004,12.308c-0.363,4.045-0.888,8.074-1.159,12.123c-0.187,2.797-0.477,5.58-0.702,8.369
		c-0.147,1.844-0.229,3.693-0.353,5.537c-0.065,0.979-0.449,1.637-1.502,1.916c-4.806,1.266-9.639,2.447-14.374,3.943
		c-3.642,1.15-7.369,1.973-10.986,3.176c-1.178,0.393-1.503,0.119-1.482-1.078c0.047-2.867,0.014-5.732,0.016-8.598
		c0-0.637,0.053-1.279-0.293-1.859c0.688-0.621,1.619-0.656,2.416-1.027c5.819-1.604,11.609-3.316,17.437-4.891
		c1.353-0.365,1.935-1.043,2.049-2.529c0.521-6.762,1.197-13.508,1.727-20.267c0.422-5.386,0.957-10.76,1.435-16.14
		c0.353-3.957,0.545-7.928,1.052-11.871c0.056-0.42,0.121-0.839,0.141-1.263c0.076-1.794-0.121-2.035-1.912-2.04
		c-6.505-0.015-13.011-0.001-19.518-0.009c-1.467-0.001-2.937,0.041-4.406-0.012c-8.313,0.108-16.626,0.038-24.937,0.036
		C-167.634-124.552-168.219-124.572-168.679-125.01z"/>
	<path style="fill-rule:evenodd;clip-rule:evenodd;fill:#EBEBEB;" d="M-140.334-65.146c-0.647,0.535-1.431,0.561-2.209,0.607
		c-6.603-1.879-13.2-3.787-19.819-5.611c-1.193-0.33-1.643-0.84-1.729-2.141c-0.303-4.541-0.73-9.076-1.214-13.604
		c-0.142-1.332,0.292-1.623,1.509-1.584c2.514,0.08,5.035,0.094,7.55-0.002c1.266-0.049,1.624,0.441,1.663,1.629
		c0.062,1.904,0.291,3.801,0.403,5.705c0.04,0.686,0.116,1.26,0.895,1.461c3.691,0.957,7.325,2.139,11.067,2.891
		c0.424-0.262,0.843-0.762,1.292-0.033c-0.808,1.063-0.938,2.273-0.901,3.576c0.063,2.316,0.007,4.633,0.043,6.926
		C-141.389-65.4-140.819-65.711-140.334-65.146z"/>
	<path style="fill-rule:evenodd;clip-rule:evenodd;fill:#EBEBEB;" d="M-168.679-125.01c8.908-0.012,17.816-0.024,26.725-0.037
		c0.43,1.988,0.078,4,0.185,6c0.031,0.58-0.005,1.164,0.009,1.746c0.037,1.752,0.172,1.918,1.887,1.932
		c3.456,0.028,6.911,0.005,10.368,0.012c0.522,0.001,1.052-0.026,1.564,0.102c0.514,0.128,1.067,0.258,0.858,1.025
		c-0.534,0.29-1.115,0.206-1.682,0.203c-3.282-0.02-6.563-0.006-9.844-0.007c-1.507-0.001-3.018,0.063-4.482-0.402
		c-7.717-0.019-15.432-0.065-23.146-0.027c-1.176,0.006-1.679-0.271-1.75-1.512C-168.159-118.991-168.441-122-168.679-125.01z"/>
	<path style="fill-rule:evenodd;clip-rule:evenodd;fill:#31A9DC;" d="M-141.013-75.938c-0.402,0.049-0.805,0.096-1.205,0.143
		c0-5.605-0.002-11.209-0.003-16.813c0.364-0.379,0.841-0.394,1.312-0.398c3.6-0.02,7.199-0.031,10.8,0.007
		c0.313,0.002,0.623,0.057,0.908,0.201c0.601,0.414,0.427,1.037,0.363,1.59c-0.421,3.678-0.432,7.389-0.98,11.055
		c-0.139,0.92-0.408,1.643-1.339,1.936c-3.048,0.961-6.135,1.768-9.26,2.432C-140.625-75.742-140.829-75.822-141.013-75.938z"/>
	<path style="fill-rule:evenodd;clip-rule:evenodd;fill:#30AADC;" d="M-143.091-114.438c4.962-0.011,9.923-0.02,14.886-0.034
		c0.379-0.002,0.723,0.082,1.029,0.306c0.286,0.486,0.262,1.029,0.215,1.55c-0.227,2.476-0.189,4.975-0.552,7.437
		c-0.276,1.873-0.713,2.248-2.586,2.262c-3.932,0.03-7.862,0.06-11.793-0.014c-3.244,0.054-6.491,0.013-9.736,0.026
		c-1.996,0.009-1.996,0.01-2.564,2.001c-0.074,0.26-0.193,0.489-0.43,0.636c-0.466-0.842-0.219-1.76-0.248-2.642
		c-0.033-1.002,0.781-0.8,1.371-0.802c3.25-0.015,6.502-0.057,9.751,0.016c1.161,0.026,1.562-0.297,1.522-1.507
		c-0.084-2.593-0.047-5.192-0.009-7.789C-142.224-113.702-142.382-114.209-143.091-114.438z"/>
	<path style="fill-rule:evenodd;clip-rule:evenodd;fill:#ECEBEA;" d="M-154.622-100.267c0.014-0.05,0.041-0.101,0.041-0.152
		c0.109-2.997,0.109-3,3.22-2.997c3.136,0.003,6.271,0.011,9.407,0.018c0.49,1.505,0.029,3.049,0.179,4.567
		c0.158,1.611-0.702,3.639,0.442,4.737c1.126,1.076,3.113,0.324,4.718,0.385c1.989,0.074,3.984-0.049,5.973,0.059
		c0.705,0.039,1.671-0.064,1.568,1.173c-4.381-0.352-8.765-0.119-13.146-0.131c-3.085-0.031-6.171-0.057-9.257-0.096
		c-2.481-0.031-2.486-0.037-2.674-2.501C-154.28-96.895-154.244-98.6-154.622-100.267z"/>
	<path style="fill-rule:evenodd;clip-rule:evenodd;fill:#FFFFFF;" d="M-129.074-92.477c-0.245-0.978-1.042-0.714-1.674-0.718
		c-3.346-0.021-6.694-0.061-10.04,0.016c-1.197,0.027-1.554-0.383-1.48-1.547c0.182-2.886-0.286-5.798,0.314-8.671
		c4.082-0.024,8.165-0.084,12.246-0.049c1.175,0.011,1.656-0.292,1.729-1.573c0.175-3.054,0.525-6.098,0.804-9.147
		c-0.09-1.071-0.919-0.67-1.448-0.675c-4.041-0.033-8.084-0.057-12.125,0.006c-1.154,0.018-1.577-0.297-1.533-1.515
		c0.087-2.383,0.035-4.773,0.021-7.161c-0.002-0.542,0.051-1.057,0.307-1.538c8.394-0.02,16.785-0.026,25.18-0.075
		c1.021-0.007,1.09,0.505,1.021,1.291c-0.37,4.273-0.712,8.55-1.092,12.822c-0.572,6.485-1.184,12.967-1.75,19.451
		c-0.576,6.594-1.119,13.188-1.67,19.785c-0.051,0.604-0.118,1.133-0.847,1.332c-6.413,1.742-12.748,3.775-19.222,5.295
		c-1.922,0.041-1.923,0.041-1.923-2.064c-0.002-2.014,0.091-4.033-0.034-6.039c-0.077-1.227,0.194-2.109,1.278-2.688
		c3.119-0.865,6.224-1.787,9.365-2.563c1.097-0.271,1.335-0.801,1.417-1.848C-129.908-84.395-129.471-88.434-129.074-92.477z"/>
</g>
<rect x="246" y="-119.531" style="fill-rule:evenodd;clip-rule:evenodd;fill:#FFFFFF;" width="100" height="99.997"/>
<g>
	<path style="fill-rule:evenodd;clip-rule:evenodd;fill:#E3A22A;" d="M-138.057,84.286c13.645,0,27.29,0.013,40.936-0.022
		c1.16-0.002,1.416,0.298,1.309,1.466c-0.67,7.37-1.21,14.751-1.87,22.121c-0.869,9.683-1.828,19.356-2.712,29.037
		c-0.521,5.716-0.961,11.44-1.461,17.158c-0.465,5.292-0.984,10.577-1.422,15.871c-0.072,0.894-0.454,1.191-1.252,1.408
		c-7.344,2.007-14.676,4.051-22.012,6.085c-3.559,0.988-7.119,1.963-10.668,2.983c-1.406,0.403-2.631-0.279-3.881-0.599
		c-4.311-1.101-8.582-2.346-12.867-3.539c-5.876-1.635-11.747-3.293-17.635-4.886c-0.919-0.247-1.306-0.589-1.388-1.6
		c-0.444-5.482-0.989-10.956-1.483-16.435c-0.341-3.781-0.652-7.566-0.984-11.35c-0.389-4.439-0.796-8.879-1.179-13.318
		c-0.522-6.047-0.952-12.102-1.564-18.139c-0.633-6.229-1.127-12.467-1.696-18.701c-0.189-2.076-0.356-4.154-0.569-6.228
		c-0.125-1.21,0.339-1.33,1.321-1.328C-165.442,84.292-151.749,84.285-138.057,84.286z"/>
	<path style="fill-rule:evenodd;clip-rule:evenodd;fill:#EFBF25;" d="M-138.404,95.348c0.543-0.934,0.241-1.955,0.262-2.934
		c0.02-0.906,0.348-1.275,1.269-1.275c10.69,0.016,21.382,0.016,32.073,0c0.958-0.001,1.275,0.453,1.201,1.322
		c-0.305,3.574-0.595,7.148-0.92,10.721c-0.24,2.627-0.543,5.25-0.786,7.879c-0.383,4.133-0.839,8.262-1.07,12.403
		c-0.142,2.503-0.454,4.984-0.634,7.479c-0.256,3.576-0.504,7.148-1.087,10.691c-0.253,1.538-0.196,3.116-0.28,4.666
		c-0.211,3.965-0.874,7.885-0.97,11.861c-0.05,2.064-0.574,4.111-0.54,6.2c0.013,0.811-0.535,1.136-1.241,1.326
		c-2.55,0.685-5.097,1.377-7.639,2.085c-5.994,1.671-11.995,3.323-17.971,5.056c-1.17,0.338-1.414,0.016-1.399-1.078
		c0.041-3.182,0.014-6.365,0.012-9.55c0.326-0.419,0.811-0.596,1.264-0.82c1.095-0.104,2.09-0.664,3.199-0.705
		c0.617-0.02,1.271,0.111,1.748-0.453c1.781-1.027,3.84-1.158,5.74-1.799c0.698-0.01,1.375-0.094,1.963-0.521
		c1.963-0.74,4.014-1.176,6.018-1.771c0.855-0.255,1.236-0.674,1.352-1.56c0.527-4.052,0.793-8.126,1.171-12.19
		c0.263-2.833,0.382-5.686,0.812-8.501c0.217-1.419,0.312-2.835,0.266-4.261c-0.041-1.251,0.225-2.452,0.447-3.669
		c0.331-1.802,0.055-2.123-1.766-2.126c-6.607-0.012-13.216,0-19.823-0.009c-0.755-0.001-1.524,0.087-2.255-0.222
		c-0.164-0.092-0.285-0.221-0.367-0.39c-0.275-0.682-0.213-1.4-0.215-2.108c-0.008-3.842-0.006-7.684-0.003-11.525
		c0.001-2.938,0.003-2.938,2.889-3.229c1.305,0.118,2.613,0.12,3.923,0.085c1.809-0.121,3.6,0.04,5.392,0.284
		c1.183,0.16,1.843,0.781,1.784,1.973c-0.13,2.628,0.729,5.172,0.614,7.795c-0.037,0.857,0.317,1.328,1.243,1.326
		c2.469-0.002,4.938,0.036,7.405-0.017c1.187-0.026,1.538-0.423,1.226-1.978c-0.568-2.809-0.561-5.662-0.816-8.489
		c-0.295-3.253-0.78-6.495-0.83-9.771c-0.021-1.51-0.182-1.67-1.775-1.676c-6.123-0.018-12.246-0.004-18.369-0.011
		c-0.709-0.001-1.428,0.068-2.119-0.166C-138.182,95.625-138.311,95.508-138.404,95.348z"/>
	<path style="fill-rule:evenodd;clip-rule:evenodd;fill:#EBECED;" d="M-138.404,95.348c0.096,0.037,0.191,0.074,0.287,0.112
		c0.502,0.55,0.419,1.237,0.424,1.893c0.018,2.324,0.029,4.649-0.003,6.974c-0.015,1.075,0.373,1.575,1.493,1.515
		c1.137-0.062,2.279-0.019,3.41,0.127c0.453,0.058,1.141-0.044,0.946,0.813c-1.265-0.02-2.527-0.039-3.791-0.059
		c-2.276-0.176-4.515,0.31-6.776,0.415c-1.418,0.066-2.838,0.106-4.256,0.147c-0.679,0.02-1.188,0.176-1.271,0.998
		c-0.436,4.332-0.986,8.653-1.15,13.008c-0.062,1.6,0.023,1.646,1.678,1.655c2.559,0.014,5.117-0.005,7.676,0.009
		c0.568,0.003,1.145,0,1.628,0.379l-0.024,0.103c0.415,0.407,0.436,0.936,0.42,1.461c-0.069,2.234,0.066,4.467,0.044,6.702
		c-0.017,1.736,0.148,1.884,1.856,1.897c2.996,0.022,5.992-0.016,8.987,0.022c0.671,0.008,1.467-0.188,1.88,0.646
		c-0.105,0.156-0.247,0.27-0.421,0.343c-2.484,0.378-4.983,0.101-7.474,0.171c-1.225,0.035-2.451,0.02-3.676-0.002
		c-0.566-0.01-1.139-0.02-1.598-0.435c-7.218-0.021-14.436-0.044-21.652-0.063c-1.834-0.005-1.921-0.114-1.669-1.923
		c0.527-3.804,0.736-7.638,1.081-11.459c0.498-5.514,1.173-11.014,1.562-16.535c0.173-2.458,0.696-4.887,0.653-7.345
		c-0.024-1.343,0.493-1.546,1.646-1.536c5.508,0.045,11.018,0.021,16.528,0.019C-139.446,95.4-138.925,95.367-138.404,95.348z"/>
	<path style="fill-rule:evenodd;clip-rule:evenodd;fill:#EBECED;" d="M-136.914,161.668c-0.26,0.502-0.781,0.414-1.211,0.533
		c-3.115-0.924-6.238-1.842-9.374-2.665c-3.75-0.983-7.442-2.175-11.223-3.038c-0.82-0.187-1.298-0.457-1.435-1.429
		c-0.326-2.3-0.351-4.623-0.642-6.929c-0.297-2.346-0.343-4.732-0.683-7.082c-0.176-1.221,0.089-1.799,1.53-1.729
		c2.704,0.133,5.418,0.056,8.127,0.065c0.637,0.256,0.803,0.888,1.118,1.399c0.193,2.078,0.386,4.156,0.583,6.232
		c0.035,0.365-0.008,0.757,0.506,0.89c3.698,0.96,7.336,2.154,11.086,2.919c0.13,0.027,0.277-0.039,0.418-0.063
		c0.195-0.164,0.397-0.153,0.604-0.023c-0.811,3.137,0.133,6.341-0.359,9.492C-137.988,161.004-137.364,161.281-136.914,161.668z"/>
	<path style="fill-rule:evenodd;clip-rule:evenodd;fill:#EFBF25;" d="M-137.551,150.848c-0.188-0.024-0.375-0.049-0.563-0.074
		c-0.001-5.51-0.002-11.02-0.002-16.53c4.256-0.056,8.514-0.142,12.77,0.045c0.5,1.011-0.013,2.082,0.193,3.11
		c0.191,3.042-0.781,5.993-0.678,9.035c0.037,1.099-0.6,1.813-1.745,2.095c-2.897,0.711-5.729,1.661-8.614,2.419
		C-136.658,151.07-137.117,151.158-137.551,150.848z"/>
	<path style="fill-rule:evenodd;clip-rule:evenodd;fill:#F8E5B9;" d="M-150.706,140.795c-0.642-0.252-0.802-0.887-1.118-1.399
		C-150.553,139.145-150.622,139.965-150.706,140.795z"/>
	<path style="fill-rule:evenodd;clip-rule:evenodd;fill:#FDFEFD;" d="M-137.551,150.848c3.303-0.91,6.594-1.869,9.917-2.702
		c1.034-0.259,1.437-0.832,1.411-1.755c-0.088-3.031,0.702-5.99,0.696-9.012c0.366-1.022,0.066-2.155,0.524-3.163
		c-0.426-0.452-0.981-0.271-1.482-0.273c-3.369-0.016-6.74-0.048-10.109,0.014c-1.193,0.021-1.574-0.403-1.551-1.573
		c0.059-2.98,0.014-5.964,0.01-8.946c7.883-0.02,15.766-0.028,23.646-0.071c0.943-0.006,0.951,0.483,0.887,1.175
		c-0.283,3.062-0.468,6.132-0.837,9.183c-0.33,2.728-0.521,5.472-0.749,8.201c-0.375,4.483-0.842,8.957-1.219,13.439
		c-0.039,0.476-0.145,0.86-0.627,0.986c-2.449,0.637-4.902,1.256-7.355,1.881c-0.52,0.393-1.221,0.174-1.754,0.521
		c-1.851,0.736-3.887,0.867-5.693,1.749c-0.512,0.469-1.269,0.065-1.789,0.505c-1.15-0.05-2.117,0.814-3.289,0.663
		c-1.113,0.107-1.581-0.416-1.404-1.623c0.298-2.027,0.221-4.037,0.021-6.076C-138.4,152.928-138.561,151.701-137.551,150.848z"/>
	<path style="fill-rule:evenodd;clip-rule:evenodd;fill:#FFFFFF;" d="M-131.847,106.781c-0.052-0.321-0.229-0.584-0.561-0.453
		c-0.763,0.303-1.478-0.092-2.222-0.086c-3.492,0.029-3.493,0-3.492-3.559c0-2.408,0.002-4.816,0.004-7.224
		c7.265-0.015,14.528-0.022,21.792-0.056c0.743-0.004,0.975,0.262,0.989,0.99c0.105,5.504,1.035,10.945,1.271,16.441
		c0.064,1.505,0.514,2.98,0.485,4.513c-0.013,0.683-0.236,0.904-0.907,0.897c-2.991-0.027-5.982-0.029-8.974-0.012
		c-0.655,0.005-0.966-0.203-0.938-0.892c0.115-2.903-0.716-5.741-0.644-8.64c0.028-1.131-0.351-1.617-1.553-1.621
		C-128.346,107.078-130.096,106.891-131.847,106.781z"/>
	<path style="fill-rule:evenodd;clip-rule:evenodd;fill:#E3A22A;" d="M-138.11,123.334c-3.563,0.015-7.126,0.023-10.688,0.049
		c-0.686,0.005-0.898-0.105-0.855-0.952c0.248-4.928,0.918-9.815,1.263-14.732c0.032-0.453,0.069-0.88,0.676-0.866
		c4.028,0.086,8.048-0.57,12.079-0.109c-2.486,0.316-2.488,0.316-2.486,2.988C-138.119,114.252-138.115,118.793-138.11,123.334z"/>
	<path style="fill-rule:evenodd;clip-rule:evenodd;fill:#E8CE61;" d="M-133.625,161.005c0.417-0.806,1.157-0.466,1.789-0.505
		C-132.2,161.489-133.014,160.888-133.625,161.005z"/>
	<path style="fill-rule:evenodd;clip-rule:evenodd;fill:#F5E3B2;" d="M-126.143,158.751c0.473-0.55,1.097-0.591,1.754-0.521
		C-124.768,159.098-125.543,158.631-126.143,158.751z"/>
	<path style="fill-rule:evenodd;clip-rule:evenodd;fill:#F1E7AA;" d="M-125.002,134.216c0.006,1.085,0.106,2.185-0.524,3.163
		c-0.126-1.041-0.05-2.07,0.181-3.092C-125.23,134.264-125.116,134.24-125.002,134.216z"/>
</g>
<g>
	<path style="fill-rule:evenodd;clip-rule:evenodd;fill:#4DC1EA;" d="M-250.584,136.872c-0.423,0.022-0.845,0.064-1.267,0.064
		c-16.053,0.003-32.106,0.003-48.16,0c-0.422,0-0.844-0.042-1.267-0.064c-4.473-0.168-8.949-0.066-13.423-0.048
		c-1.207,0.005-2.377-0.323-3.62-0.125c-0.749,0.121-1.591-0.337-1.46-1.454c0.033-0.279,0.004-0.564,0.004-0.848
		c0-26.063,0-52.125,0-78.187c0-2.217,0.081-2.297,2.314-2.297c26.863,0,53.728,0,80.59,0c1.674,0,1.675,0.002,1.675,1.661
		c0.002,26.062,0.002,52.124-0.001,78.187c0,0.517-0.111,1.059-0.051,1.544c0.17,1.363-0.444,1.529-1.634,1.522
		C-241.448,136.801-246.018,136.702-250.584,136.872z"/>
	<path style="fill-rule:evenodd;clip-rule:evenodd;fill:#53BFE7;" d="M-250.584,136.872c0.456-0.374,0.997-0.205,1.499-0.207
		c3.771-0.015,7.542-0.009,11.313-0.009c2.259,0,2.261,0,2.431-2.205c0.021-0.28,0.005-0.564,0.005-0.848
		c0-25.927-0.013-51.854,0.032-77.781c0.002-1.428-0.347-1.803-1.792-1.801c-26.775,0.047-53.551,0.034-80.326,0.035
		c-1.968,0-2.212,0.24-2.212,2.182c-0.001,26.116-0.001,52.232,0,78.348c0,1.675,0.487,2.02,2.173,1.592
		c0.864-0.22,1.474,0.554,2.383,0.528c4.098-0.113,8.201-0.056,12.302-0.041c0.502,0.002,1.043-0.168,1.499,0.207
		c-5.89,0.027-11.78,0.047-17.67,0.092c-0.724,0.007-1.051-0.238-0.984-0.98c0.034-0.374,0.003-0.753,0.003-1.131
		c0-26.444,0.013-52.889-0.035-79.333c-0.002-1.445,0.369-1.789,1.793-1.787c27.104,0.045,54.209,0.033,81.313,0.035
		c1.812,0,1.818,0.001,1.818,1.859c0.002,26.492,0.002,52.983,0,79.475c0,1.842-0.008,1.851-1.836,1.842
		C-241.444,136.924-246.014,136.896-250.584,136.872z"/>
	<path style="fill-rule:evenodd;clip-rule:evenodd;fill:#08212D;" d="M-238.768,57.528c0.005,24.847,0,49.694,0.044,74.542
		c0.002,1.291-0.683,1.169-1.501,1.169c-19.755-0.005-39.511-0.004-59.266-0.004c-5.14,0-10.279-0.014-15.417,0.019
		c-0.901,0.007-1.332-0.123-1.331-1.202c0.031-24.658,0.025-49.317,0.027-73.976c0-0.188,0.017-0.377,0.026-0.564
		c0.393-0.494,0.951-0.339,1.448-0.34c24.842-0.008,49.684-0.008,74.525,0C-239.712,57.172-239.155,57.035-238.768,57.528z"/>
	<path style="fill-rule:evenodd;clip-rule:evenodd;fill:#50BFEE;" d="M-319.072,95.228c0-12.776,0-25.552,0-38.327
		c0-0.283,0.011-0.566-0.002-0.848c-0.029-0.595-0.001-1.307,0.725-1.283c0.696,0.022,0.688,0.766,0.687,1.326
		c-0.003,1.118,0.139,2.248-0.67,3.233c-0.224,0.272-0.168,0.809-0.168,1.224c-0.006,23.193-0.005,46.388-0.01,69.583
		c0,0.617,0.114,1.137,0.458,1.705c0.638,1.052,0.438,2.281,0.314,3.45c-0.032,0.297-0.164,0.714-0.584,0.677
		c-0.386-0.033-0.717-0.254-0.736-0.717c-0.015-0.378-0.014-0.754-0.014-1.131C-319.072,121.155-319.072,108.192-319.072,95.228z"/>
	<path style="fill-rule:evenodd;clip-rule:evenodd;fill:#53BFE7;" d="M-312.566,55.184c24.168,0,48.337,0,72.504,0
		c0.001,0.139,0.001,0.278,0.003,0.417c-25.201,0.712-50.428-0.687-75.619,0.716c-0.188,0.17-0.376,0.148-0.563-0.002
		c-0.163-0.391-0.607-0.639-0.568-1.131C-315.395,54.895-313.981,54.718-312.566,55.184z"/>
	<path style="fill-rule:evenodd;clip-rule:evenodd;fill:#53BFE7;" d="M-238.768,57.528c-0.659-0.017-1.317-0.048-1.976-0.048
		c-24.725-0.004-49.448-0.006-74.171-0.006c-0.424,0-0.847,0.023-1.271,0.037l-0.076-0.085c-0.036-0.428,0.121-0.651,0.583-0.547
		c25.247,0.001,50.495-0.003,75.741,0.04C-239.599,56.92-238.554,56.223-238.768,57.528z"/>
	<path style="fill-rule:evenodd;clip-rule:evenodd;fill:#50BFEE;" d="M-312.566,55.184c-1.415,0-2.829,0-4.243,0
		c0.024-0.088,0.018-0.22,0.075-0.259C-315.961,54.396-313.298,54.568-312.566,55.184z"/>
	<path style="fill-rule:evenodd;clip-rule:evenodd;fill:#50BFEE;" d="M-315.678,56.88c-0.194,0.183-0.389,0.364-0.583,0.547
		c-0.309-0.02-0.511-0.15-0.529-0.489c-0.021-0.391,0.166-0.592,0.548-0.623c0.188,0,0.375,0.001,0.563,0.002
		C-315.678,56.504-315.678,56.691-315.678,56.88z"/>
	<path style="fill-rule:evenodd;clip-rule:evenodd;fill:#4FC0ED;" d="M-297.805,94.223c0-5.844,0.022-11.689-0.021-17.533
		c-0.008-1.056,0.205-1.49,1.382-1.439c4.233,0.188,8.486-0.281,12.707,0.266c4.913,0.636,7.791,3.516,8.478,8.41
		c0.398,2.83,0.254,5.637-0.601,8.385c-1.297,4.171-4.714,6.833-9.097,7.017c-1.741,0.072-3.488,0.084-5.23,0.029
		c-0.934-0.028-1.198,0.282-1.186,1.205c0.049,3.535,0.014,7.071,0.017,10.605c0.002,2.377,0.087,1.982-1.922,1.99
		c-1.038,0.004-2.078-0.051-3.11,0.024c-1.09,0.079-1.461-0.281-1.451-1.425c0.056-5.844,0.026-11.688,0.026-17.534
		C-297.809,94.223-297.807,94.223-297.805,94.223z"/>
	<path style="fill-rule:evenodd;clip-rule:evenodd;fill:#4EC0EC;" d="M-254.53,88.676c-0.003,2.459-0.01,2.481-2.359,1.785
		c-1.793-0.529-3.618-0.622-5.455-0.475c-1.71,0.137-2.705,1.104-2.834,2.607c-0.129,1.51,0.561,2.379,2.309,2.871
		c0.905,0.254,1.813,0.516,2.734,0.701c6.102,1.225,7.447,4.697,6.875,10.057c-0.425,3.967-2.779,6.263-6.699,6.946
		c-3.234,0.566-6.376,0.15-9.449-0.937c-1.004-0.355-1.744-0.842-1.529-2.134c0.184-1.1-0.477-2.623,0.253-3.244
		c0.723-0.617,1.907,0.578,2.956,0.801c2.098,0.444,4.188,0.66,6.298,0.203c1.386-0.299,2.253-1.107,2.321-2.611
		c0.068-1.49-0.677-2.41-2.04-2.842c-1.073-0.34-2.171-0.604-3.261-0.893c-5.092-1.346-7.117-4.321-6.514-9.581
		c0.454-3.967,2.903-6.453,6.897-7.076c2.27-0.354,4.505-0.23,6.724,0.309C-254.524,85.842-254.525,85.85-254.53,88.676z"/>
	<path style="fill-rule:evenodd;clip-rule:evenodd;fill:#08212D;" d="M-291.351,87.328c-0.001-1.693,0.032-3.387-0.017-5.08
		c-0.022-0.774,0.187-1.115,1.014-1.051c1.819,0.141,3.655-0.191,5.47,0.244c1.657,0.397,2.541,1.465,2.876,3.07
		c0.351,1.678,0.378,3.354,0.033,5.039c-0.548,2.682-2.034,3.989-4.763,4.091c-1.221,0.046-2.447-0.028-3.668,0.022
		c-0.751,0.032-0.973-0.246-0.957-0.973C-291.321,90.904-291.349,89.116-291.351,87.328z"/>
</g>
<g>
	<path style="fill-rule:evenodd;clip-rule:evenodd;fill:#F19127;" d="M-275.081,150.799c13.681,0,27.36,0.025,41.04-0.035
		c1.404-0.008,1.6,0.508,1.598,1.781c-0.024,27.799-0.02,55.599,0.025,83.396c0.003,1.403-0.318,1.834-1.711,1.833
		c-27.171-0.038-54.341-0.023-81.512-0.025c-2.046,0-2.031-0.021-2.031-2.228c0.002-27.602,0-55.204-0.005-82.806
		c0-1.906-0.014-1.928,1.84-1.928c13.585-0.01,27.17-0.006,40.756-0.006C-275.081,150.789-275.081,150.795-275.081,150.799z"/>
	<path style="fill-rule:evenodd;clip-rule:evenodd;fill:#28110D;" d="M-274.969,154.662c12.445,0,24.89,0.018,37.334-0.027
		c1.184-0.006,1.482,0.314,1.48,1.543c-0.034,25.375-0.032,50.748-0.004,76.126c0.002,1.171-0.219,1.592-1.458,1.59
		c-24.842-0.039-49.684-0.022-74.526-0.033c-1.977,0-1.802,0.352-1.802-1.897c-0.003-25.177,0.009-50.352-0.032-75.529
		c-0.002-1.379,0.254-1.814,1.675-1.807C-299.858,154.693-287.413,154.662-274.969,154.662z"/>
	<path style="fill-rule:evenodd;clip-rule:evenodd;fill:#F29327;" d="M-297.472,211.423c1.254-4.64,2.467-9.125,3.678-13.61
		c2.296-8.514,4.624-17.018,6.857-25.547c0.354-1.354,0.915-1.793,2.231-1.697c1.741,0.129,3.499,0.068,5.247,0.012
		c0.829-0.027,1.241,0.211,1.48,1.105c3.432,12.831,6.887,25.65,10.387,38.461c0.314,1.149,0.027,1.34-0.98,1.292
		c-1.416-0.067-2.841-0.081-4.255,0.006c-0.911,0.057-1.207-0.335-1.397-1.189c-0.644-2.871-1.386-5.718-2.042-8.588
		c-0.202-0.888-0.528-1.274-1.5-1.248c-3.072,0.076-6.149,0.057-9.222,0.004c-0.869-0.014-1.25,0.279-1.455,1.165
		c-0.682,2.962-1.48,5.895-2.15,8.859c-0.18,0.799-0.495,1.012-1.232,0.991C-293.66,211.39-295.498,211.423-297.472,211.423z"/>
	<path style="fill-rule:evenodd;clip-rule:evenodd;fill:#F19127;" d="M-255.215,196.491c0,4.58-0.023,9.16,0.02,13.741
		c0.009,0.969-0.263,1.294-1.201,1.243c-1.416-0.077-2.842-0.092-4.256,0.006c-1.095,0.079-1.334-0.339-1.328-1.418
		c0.041-8.176,0.022-16.352,0.022-24.528c0-1.083,0.034-2.168-0.011-3.249c-0.029-0.765,0.23-1.052,0.979-1.03
		c1.514,0.049,3.03,0.08,4.541-0.002c1.02-0.055,1.276,0.34,1.266,1.349c-0.041,4.627-0.018,9.258-0.018,13.889
		C-255.206,196.491-255.211,196.491-255.215,196.491z"/>
	<path style="fill-rule:evenodd;clip-rule:evenodd;fill:#F19227;" d="M-258.572,177.137c-2.073,0.012-3.705-1.654-3.723-3.799
		c-0.02-2.166,1.563-3.873,3.622-3.908c2.14-0.037,3.798,1.666,3.781,3.887C-254.906,175.488-256.484,177.125-258.572,177.137z"/>
	<path style="fill-rule:evenodd;clip-rule:evenodd;fill:#28110D;" d="M-282.599,177.764c1.846,4.868,2.774,9.91,4.107,14.839
		c0.201,0.744,0.144,1.168-0.795,1.138c-2.077-0.064-4.156-0.031-6.234-0.026c-0.588,0.002-1.01-0.012-0.792-0.88
		C-285.052,187.817-283.833,182.787-282.599,177.764z"/>
</g>
<g>
	<path style="fill-rule:evenodd;clip-rule:evenodd;fill:#BE81B8;" d="M-208.346,275.486c0-27.588,0.003-55.178-0.021-82.766
		c0-0.709,0.181-0.799,0.83-0.799c28.035,0.02,56.07,0.02,84.105,0c0.649,0,0.83,0.09,0.829,0.799
		c-0.023,27.588-0.02,55.178-0.02,82.766c-0.223,0.236-0.5,0.338-0.824,0.344c-0.334,0.002-0.67,0.01-1.004,0.01
		c-27.356,0-54.712,0-82.069-0.008C-207.138,275.832-207.817,276.023-208.346,275.486z"/>
	<path style="fill-rule:evenodd;clip-rule:evenodd;fill:#2B0D34;" d="M-165.417,195.566c12.724,0,25.449,0.008,38.172-0.018
		c0.794-0.002,1.015,0.172,1.014,0.994c-0.024,24.807-0.024,49.613-0.001,74.42c0.001,0.826-0.231,0.996-1.021,0.994
		c-25.477-0.021-50.954-0.023-76.43,0.002c-0.842,0.002-1.057-0.193-1.056-1.047c0.025-24.779,0.026-49.557-0.002-74.334
		c-0.001-0.885,0.261-1.029,1.067-1.027C-190.921,195.574-178.168,195.566-165.417,195.566z"/>
	<path style="fill-rule:evenodd;clip-rule:evenodd;fill:#BE81B8;" d="M-186.087,230.654c0-6.191,0.015-12.385-0.019-18.578
		c-0.004-0.818,0.259-1.045,1.041-1.045c3.624,0.004,7.25-0.338,10.872,0c3.636,0.34,6.931,1.48,9.327,4.424
		c2.042,2.508,2.664,5.482,2.511,8.629c-0.219,4.477-2.006,8.078-6.084,10.271c-3.065,1.652-6.398,2.004-9.813,1.889
		c-0.223-0.006-0.45,0.002-0.667-0.039c-0.643-0.113-0.858,0.096-0.853,0.787c0.033,4.1-0.006,8.201,0.035,12.301
		c0.009,0.865-0.272,1.109-1.104,1.074c-1.448-0.061-2.902-0.055-4.351-0.002c-0.755,0.029-0.937-0.248-0.934-0.965
		c0.024-6.248,0.014-12.496,0.014-18.746C-186.105,230.654-186.096,230.654-186.087,230.654z"/>
	<path style="fill-rule:evenodd;clip-rule:evenodd;fill:#BE81B8;" d="M-156.939,237.297c0-3.711,0.001-7.424-0.002-11.135
		c-0.002-0.389-0.008-0.781-0.043-1.17c-0.152-1.76-0.509-1.479,1.463-2.154c3.663-1.254,7.434-1.928,11.313-1.996
		c0.681-0.012,0.939,0.158,0.915,0.875c-0.049,1.422-0.033,2.846-0.006,4.268c0.013,0.586-0.197,0.781-0.781,0.76
		c-1.844-0.066-3.675,0.057-5.492,0.424c-0.655,0.131-0.885,0.393-0.882,1.105c0.033,7.004,0.021,14.006,0.021,21.01
		c0,1.088-0.002,1.088-1.12,1.088c-1.506,0-3.014-0.027-4.52,0.014c-0.669,0.02-0.864-0.219-0.86-0.869
		c0.021-4.072,0.01-8.145,0.01-12.219C-156.928,237.297-156.934,237.297-156.939,237.297z"/>
	<path style="fill-rule:evenodd;clip-rule:evenodd;fill:#2B0D34;" d="M-179.757,223.561c0-2.061,0.019-4.123-0.013-6.184
		c-0.008-0.545,0.16-0.695,0.694-0.719c1.976-0.084,3.949-0.225,5.886,0.35c2.54,0.756,3.954,2.479,4.326,5.068
		c0.14,0.965,0.13,1.949-0.029,2.914c-0.524,3.166-2.541,5.002-5.979,5.43c-1.412,0.176-2.832,0.17-4.254,0.096
		c-0.508-0.027-0.649-0.184-0.643-0.689C-179.741,227.738-179.757,225.648-179.757,223.561z"/>
</g>
<g>
	<path style="fill-rule:evenodd;clip-rule:evenodd;fill:#096AAD;" d="M7.485-144.563c-1.51,7.996,0.701,14.729,6.881,20.075
		c2.928,2.533,6.218,4.455,9.983,5.474c4.966,1.343,9.731,0.673,14.343-1.476c0.205-0.095,0.383-0.277,0.75-0.228
		c-0.961,1.555-2.127,2.846-3.525,3.921c-2.557,1.965-5.488,2.884-8.682,3.037c-4.896,0.233-9.561-0.627-13.677-3.39
		c-5.31-3.563-8.642-8.564-9.806-14.852c-0.815-4.399,0.591-8.344,3.162-11.915c0.148-0.206,0.396-0.355,0.412-0.646
		C7.38-144.563,7.433-144.563,7.485-144.563z"/>
	<path style="fill-rule:evenodd;clip-rule:evenodd;fill:#0B69AB;" d="M40.954-83.863c-0.637,1.585-1.471,3.073-2.451,4.47
		C32.216-70.442,23.7-64.767,12.922-63.011c-16.78,2.732-31.256-2.09-43.124-14.311c-6.455-6.647-10.78-14.521-12.542-23.675
		c-1.736-9.019-0.741-17.619,4.327-25.503c1.103-1.716,2.354-3.318,3.764-4.794c0.279-0.292,0.28-0.29,0.837-0.463
		c-0.481,2.27-0.904,4.521-1.17,6.801c-1.611,13.795,1.868,25.935,11.815,35.903c5.99,6.001,12.876,10.788,20.905,13.562
		c11.284,3.896,22.521,3.584,33.481-1.46C34.263-78.355,36.866-80.242,40.954-83.863z"/>
	<path style="fill-rule:evenodd;clip-rule:evenodd;fill:#0B69AB;" d="M43.534-106.447c-1.141,2.791-2.635,5.281-4.596,7.486
		c-4.09,4.602-9.307,7.271-15.235,8.501C12.119-88.055,1.87-90.825-6.896-98.817c-4.529-4.129-8.059-8.965-9.787-14.92
		c-1.806-6.222-1.963-12.44,0.529-18.557c0.999-2.453,3.073-5.627,4.76-7.31c-0.201,1.313-0.412,2.509-0.563,3.712
		c-1.022,8.121,0.067,15.806,4.785,22.715c3.292,4.82,7.735,8.336,12.761,11.19c4.076,2.314,8.35,4.054,13.048,4.605
		c9.563,1.123,17.722-1.71,24.415-8.667c0.111-0.114,0.223-0.225,0.336-0.335C43.403-106.398,43.429-106.402,43.534-106.447z"/>
</g>
<path style="fill-rule:evenodd;clip-rule:evenodd;fill:#CD6899;" d="M92.926,58.127c-5.06-3.438-10.509-3.25-15.991-1.227
	c-1.262,0.465-1.685,0.211-2.248-0.875c-1.606-3.096-1.743-6.24-0.497-9.436c0.592-1.521-0.053-2.051-1.41-2.264
	c-2.733-0.428-4.115,0.539-4.857,3.275c-1.123,4.145-3.635,7.573-5.703,11.438c-1.803-3.146-2.008-5.895-0.921-9.313
	c0.194-0.607,0.821-1.299,0.197-1.92c-1.085-1.081-2.492-0.564-3.763-0.516c-0.963,0.037-1.698,0.438-2.065,1.555
	c-2.266,6.917-5.573,13.391-8.646,19.963c-0.156,0.336-0.191,0.917-0.869,0.827c-0.216-0.864-0.105-1.712,0.107-2.557
	c0.729-2.915,1.43-5.835,2.188-8.741c0.338-1.297-0.235-2.113-1.42-2.039c-1.46,0.09-1.486-0.486-1.47-1.664
	c0.047-3.389-2.07-4.78-5.224-3.494c-1.518,0.617-2.998,1.463-4.01,2.729c-2.114,2.645-5.047,4.027-7.896,5.574
	c-1.155,0.625-2.296,1.67-3.485,1.732c-1.252,0.066-1.99-1.514-2.993-2.324c-3.067-2.477-6.372-4.672-9.075-7.588
	c-3.404-3.679-3.924-7.898-1.453-12.256c0.775-1.367,1.682-2.653,2.813-3.746c7.253-7.004,15.896-11.495,25.629-13.875
	c4.293-1.049,8.67-1.326,12.971,0.209c3.182,1.135,4.364,2.9,4.2,6.246c-0.099,2.02-0.972,3.747-2.05,5.375
	c-2.31,3.488-5.42,6.21-9.212,7.796c-6.653,2.783-13.466,5.812-20.276,0.208c-0.166-0.138-0.492-0.254-0.657-0.181
	c-0.315,0.138-0.337,0.511-0.261,0.815c0.218,0.867,0.652,1.621,1.289,2.254c1.901,1.885,4.197,2.904,6.855,3.148
	c4.882,0.447,9.643-0.167,14.203-1.923c7.567-2.911,13.006-7.932,15.025-16.034c1.276-5.117-0.604-9.405-5.208-11.906
	c-5.695-3.094-11.841-3.107-17.938-1.84c-9.471,1.97-17.953,6.228-25.592,12.126c-3.752,2.897-6.887,6.36-9.052,10.653
	c-2.146,4.258-1.704,8.186,1.14,11.96c2.375,3.152,5.438,5.517,8.594,7.798c2.37,1.715,4.903,3.213,7.238,5.275
	c-3.371,1.918-6.703,3.648-9.625,6.019c-2.061,1.673-3.952,3.478-4.982,6.008c-2.445,6.009,0.615,10.46,7.043,10.21
	c0.559-0.021,1.121-0.109,1.671-0.222c9.188-1.887,14.694-11.455,11.7-20.329c-0.174-0.514-0.599-1.018,0.153-1.439
	c1.429-0.801,2.767-1.777,4.483-2.412c-0.192,0.814-0.341,1.412-0.476,2.014c-0.823,3.692-0.905,7.336,0.8,10.834
	c0.722,1.48,1.488,2.896,3.504,2.947c1.986,0.051,2.924-1.229,3.71-2.691c0.878-1.637,1.642-3.333,2.665-5.431
	c-0.051,1.807-0.126,3.155,0.193,4.466c0.625,2.579,2.46,3.12,4.406,1.337c1.518-1.392,2.339-3.237,3.309-4.984
	c2.485-4.483,4.578-9.157,6.65-14.183c0.714,1.99,0.773,3.9,1.789,5.377c1.321,1.924,0.803,3.34-0.633,4.896
	c-1.655,1.79-3.193,3.702-4.637,5.669c-1.035,1.407-0.467,2.644,1.135,2.893c6.695,1.032,11.88-4.713,10.041-11.125
	c-0.166-0.578-0.581-1.117-0.127-1.771c1.882-2.703,3.434-5.615,5.183-8.771c0.621,2.057,0.866,3.885,1.792,5.412
	c0.81,1.336,0.539,2.111-0.557,3.148c-2.113,1.996-3.92,4.273-4.027,7.389c-0.073,2.127,1.215,3.141,3.272,2.547
	c1.688-0.486,3.281-1.213,4.682-2.327c2.151-1.712,3.396-3.755,3.04-6.655c-0.101-0.818-1.262-1.746-0.179-2.469
	c0.742-0.494,1.769-0.592,2.686-0.783c0.732-0.154,1.489-0.244,2.238-0.256c3.881-0.057,7.7,0.283,10.77,2.996
	c2.627,2.322,3.936,6.252-0.222,8.982c-0.306,0.2-0.667,0.401-0.534,0.881c2.512,0.169,5.014-2.378,5.128-5.3
	C97.315,62.738,95.731,60.035,92.926,58.127z M15.229,80.153c-2.429,0.625-3.651-0.337-3.486-2.806
	c0.15-2.242,1.322-4.015,2.842-5.548c2.305-2.322,5.066-4.048,7.821-5.772c0.948-0.594,1.365-0.312,1.426,0.738
	c0.04,0.686,0.087,1.371,0.105,1.659C23.913,74.088,20.239,78.867,15.229,80.153z M42.773,56.449
	c-1.225,4.592-2.887,9.026-4.959,13.303c-0.287,0.59-0.54,1.514-1.315,1.388c-0.847-0.134-0.864-1.119-0.985-1.832
	c-0.113-0.674-0.09-1.37-0.098-1.504c-0.061-4.606,1.498-8.093,3.817-11.292c0.396-0.545,0.942-1.006,1.494-1.402
	c0.536-0.387,1.156-0.969,1.853-0.535C43.326,55.037,42.943,55.809,42.773,56.449z M56.264,71.091
	c1.368-1.609,2.734-3.22,4.346-5.116C60.24,68.891,58.486,70.19,56.264,71.091z M70.37,67.964c-0.268,0.112-0.557,0.384-0.839,0.074
	c-0.245-0.271-0.091-0.589,0.008-0.883c0.67-1.977,1.625-3.767,3.421-5.255C73.772,64.443,72.605,67.033,70.37,67.964z"/>
</svg>
